<svg width="15" height="18" viewBox="0 0 15 18" fill="none" xmlns="http://www.w3.org/2000/svg">
<path d="M14.375 2.75H10.625V1.8125C10.625 1.3981 10.4604 1.00067 10.1674 0.707646C9.87433 0.41462 9.4769 0.25 9.0625 0.25H5.9375C5.5231 0.25 5.12567 0.41462 4.83265 0.707646C4.53962 1.00067 4.375 1.3981 4.375 1.8125V2.75H0.625C0.45924 2.75 0.300269 2.81585 0.183058 2.93306C0.0658481 3.05027 0 3.20924 0 3.375C0 3.54076 0.0658481 3.69973 0.183058 3.81694C0.300269 3.93415 0.45924 4 0.625 4H1.28906L2.03125 15.9109C2.08672 16.9598 2.89062 17.75 3.90625 17.75H11.0938C12.1145 17.75 12.9023 16.9773 12.9688 15.9141L13.7109 4H14.375C14.5408 4 14.6997 3.93415 14.8169 3.81694C14.9342 3.69973 15 3.54076 15 3.375C15 3.20924 14.9342 3.05027 14.8169 2.93306C14.6997 2.81585 14.5408 2.75 14.375 2.75ZM5.02227 15.25H5C4.83803 15.2501 4.68234 15.1873 4.56575 15.0749C4.44916 14.9624 4.38077 14.8091 4.375 14.6473L4.0625 5.89727C4.05659 5.73151 4.11678 5.57019 4.22981 5.4488C4.34285 5.32742 4.49947 5.25591 4.66523 5.25C4.83099 5.24409 4.99231 5.30428 5.1137 5.41731C5.23508 5.53035 5.30659 5.68697 5.3125 5.85273L5.625 14.6027C5.62798 14.6848 5.61474 14.7667 5.58605 14.8437C5.55737 14.9206 5.51378 14.9912 5.45781 15.0513C5.40183 15.1114 5.33455 15.1599 5.25981 15.194C5.18508 15.2281 5.10436 15.2471 5.02227 15.25ZM8.125 14.625C8.125 14.7908 8.05915 14.9497 7.94194 15.0669C7.82473 15.1842 7.66576 15.25 7.5 15.25C7.33424 15.25 7.17527 15.1842 7.05806 15.0669C6.94085 14.9497 6.875 14.7908 6.875 14.625V5.875C6.875 5.70924 6.94085 5.55027 7.05806 5.43306C7.17527 5.31585 7.33424 5.25 7.5 5.25C7.66576 5.25 7.82473 5.31585 7.94194 5.43306C8.05915 5.55027 8.125 5.70924 8.125 5.875V14.625ZM9.375 2.75H5.625V1.8125C5.62453 1.77133 5.63229 1.73048 5.64783 1.69236C5.66337 1.65423 5.68637 1.61959 5.71548 1.59048C5.74459 1.56137 5.77923 1.53837 5.81736 1.52283C5.85548 1.50729 5.89633 1.49953 5.9375 1.5H9.0625C9.10367 1.49953 9.14452 1.50729 9.18264 1.52283C9.22077 1.53837 9.25541 1.56137 9.28452 1.59048C9.31363 1.61959 9.33663 1.65423 9.35217 1.69236C9.36771 1.73048 9.37547 1.77133 9.375 1.8125V2.75ZM10.625 14.6473C10.6192 14.8091 10.5508 14.9624 10.4343 15.0749C10.3177 15.1873 10.162 15.2501 10 15.25H9.97734C9.89528 15.2471 9.8146 15.228 9.73992 15.1939C9.66523 15.1598 9.59799 15.1113 9.54206 15.0512C9.48612 14.9911 9.44257 14.9205 9.41391 14.8436C9.38524 14.7666 9.37202 14.6848 9.375 14.6027L9.6875 5.85273C9.69042 5.77066 9.70949 5.68996 9.7436 5.61525C9.77771 5.54054 9.8262 5.47328 9.8863 5.41731C9.94641 5.36134 10.0169 5.31776 10.0939 5.28905C10.1708 5.26035 10.2527 5.24708 10.3348 5.25C10.4168 5.25292 10.4975 5.27199 10.5722 5.3061C10.647 5.34021 10.7142 5.3887 10.7702 5.4488C10.8262 5.50891 10.8697 5.57945 10.8984 5.65639C10.9272 5.73334 10.9404 5.81519 10.9375 5.89727L10.625 14.6473Z" fill="#D50000"/>
</svg>
