<svg width="101" height="100" viewBox="0 0 101 100" fill="none" xmlns="http://www.w3.org/2000/svg">
<mask id="mask0_2951_8344" style="mask-type:alpha" maskUnits="userSpaceOnUse" x="0" y="0" width="101" height="100">
<rect x="0.5" width="100" height="100" rx="50" fill="#D9D9D9"/>
</mask>
<g mask="url(#mask0_2951_8344)">
<rect x="0.5" width="100" height="100" rx="50" fill="black"/>
</g>
<path d="M65.8125 35.625H57.1875V33.4688C57.1875 32.5156 56.8089 31.6015 56.1349 30.9276C55.461 30.2536 54.5469 29.875 53.5938 29.875H46.4062C45.4531 29.875 44.539 30.2536 43.8651 30.9276C43.1911 31.6015 42.8125 32.5156 42.8125 33.4688V35.625H34.1875C33.8063 35.625 33.4406 35.7765 33.171 36.046C32.9015 36.3156 32.75 36.6813 32.75 37.0625C32.75 37.4437 32.9015 37.8094 33.171 38.079C33.4406 38.3485 33.8063 38.5 34.1875 38.5H35.7148L37.4219 65.8952C37.5495 68.3075 39.3984 70.125 41.7344 70.125H58.2656C60.6132 70.125 62.4254 68.3479 62.5781 65.9023L64.2852 38.5H65.8125C66.1937 38.5 66.5594 38.3485 66.829 38.079C67.0985 37.8094 67.25 37.4437 67.25 37.0625C67.25 36.6813 67.0985 36.3156 66.829 36.046C66.5594 35.7765 66.1937 35.625 65.8125 35.625ZM44.3012 64.375H44.25C43.8775 64.3752 43.5194 64.2308 43.2512 63.9722C42.9831 63.7136 42.8258 63.361 42.8125 62.9887L42.0938 42.8637C42.0802 42.4825 42.2186 42.1114 42.4786 41.8322C42.7386 41.5531 43.0988 41.3886 43.48 41.375C43.8613 41.3614 44.2323 41.4998 44.5115 41.7598C44.7907 42.0198 44.9552 42.38 44.9688 42.7613L45.6875 62.8863C45.6943 63.0751 45.6639 63.2634 45.5979 63.4404C45.5319 63.6175 45.4317 63.7797 45.303 63.918C45.1742 64.0563 45.0195 64.1678 44.8476 64.2462C44.6757 64.3246 44.49 64.3684 44.3012 64.375ZM51.4375 62.9375C51.4375 63.3187 51.2861 63.6844 51.0165 63.954C50.7469 64.2235 50.3812 64.375 50 64.375C49.6188 64.375 49.2531 64.2235 48.9835 63.954C48.714 63.6844 48.5625 63.3187 48.5625 62.9375V42.8125C48.5625 42.4313 48.714 42.0656 48.9835 41.796C49.2531 41.5265 49.6188 41.375 50 41.375C50.3812 41.375 50.7469 41.5265 51.0165 41.796C51.2861 42.0656 51.4375 42.4313 51.4375 42.8125V62.9375ZM54.3125 35.625H45.6875V33.4688C45.6864 33.3741 45.7043 33.2801 45.74 33.1924C45.7757 33.1047 45.8286 33.0251 45.8956 32.9581C45.9626 32.8911 46.0422 32.8382 46.1299 32.8025C46.2176 32.7668 46.3116 32.7489 46.4062 32.75H53.5938C53.6884 32.7489 53.7824 32.7668 53.8701 32.8025C53.9578 32.8382 54.0374 32.8911 54.1044 32.9581C54.1714 33.0251 54.2243 33.1047 54.26 33.1924C54.2957 33.2801 54.3136 33.3741 54.3125 33.4688V35.625ZM57.1875 62.9887C57.1742 63.361 57.0169 63.7136 56.7488 63.9722C56.4806 64.2308 56.1225 64.3752 55.75 64.375H55.6979C55.5092 64.3683 55.3236 64.3244 55.1518 64.246C54.98 64.1675 54.8254 64.056 54.6967 63.9177C54.5681 63.7794 54.4679 63.6172 54.402 63.4402C54.3361 63.2633 54.3057 63.075 54.3125 62.8863L55.0312 42.7613C55.038 42.5725 55.0818 42.3869 55.1603 42.2151C55.2387 42.0432 55.3503 41.8886 55.4885 41.7598C55.6267 41.6311 55.789 41.5309 55.966 41.4648C56.1429 41.3988 56.3312 41.3683 56.52 41.375C56.7087 41.3817 56.8943 41.4256 57.0662 41.504C57.238 41.5825 57.3927 41.694 57.5214 41.8322C57.6502 41.9705 57.7504 42.1327 57.8164 42.3097C57.8825 42.4867 57.913 42.6749 57.9062 42.8637L57.1875 62.9887Z" fill="white"/>
</svg>
