<svg width="14" height="20" viewBox="0 0 14 20" fill="none" xmlns="http://www.w3.org/2000/svg">
<path d="M11.375 7.5H10.75V4.375C10.75 3.38044 10.3549 2.42661 9.65165 1.72335C8.94839 1.02009 7.99456 0.625 7 0.625C6.00544 0.625 5.05161 1.02009 4.34835 1.72335C3.64509 2.42661 3.25 3.38044 3.25 4.375V7.5H2.625C1.96218 7.50072 1.32672 7.76435 0.858033 8.23303C0.389348 8.70172 0.125724 9.33718 0.125 10V16.875C0.125724 17.5378 0.389348 18.1733 0.858033 18.642C1.32672 19.1107 1.96218 19.3743 2.625 19.375H11.375C12.0378 19.3743 12.6733 19.1107 13.142 18.642C13.6107 18.1733 13.8743 17.5378 13.875 16.875V10C13.8743 9.33718 13.6107 8.70172 13.142 8.23303C12.6733 7.76435 12.0378 7.50072 11.375 7.5ZM9.5 7.5H4.5V4.375C4.5 3.71196 4.76339 3.07607 5.23223 2.60723C5.70107 2.13839 6.33696 1.875 7 1.875C7.66304 1.875 8.29893 2.13839 8.76777 2.60723C9.23661 3.07607 9.5 3.71196 9.5 4.375V7.5Z" fill="black"/>
</svg>
