<svg width="14" height="14" viewBox="0 0 14 14" fill="none" xmlns="http://www.w3.org/2000/svg">
<path d="M10.9375 13.125C10.8305 13.1253 10.7271 13.0864 10.6468 13.0156L7 9.77293L3.35317 13.0156C3.29006 13.0717 3.21206 13.1084 3.12859 13.1211C3.04512 13.1339 2.95974 13.1222 2.88276 13.0875C2.80578 13.0528 2.74048 12.9966 2.69474 12.9256C2.649 12.8546 2.62478 12.7719 2.625 12.6875V2.625C2.62551 2.16103 2.81005 1.7162 3.13812 1.38812C3.4662 1.06004 3.91103 0.875507 4.375 0.875H9.625C10.089 0.875507 10.5338 1.06004 10.8619 1.38812C11.19 1.7162 11.3745 2.16103 11.375 2.625V12.6875C11.375 12.8035 11.3289 12.9148 11.2469 12.9969C11.1648 13.0789 11.0535 13.125 10.9375 13.125Z" fill="black"/>
</svg>
