<svg width="18" height="18" viewBox="0 0 18 18" fill="none" xmlns="http://www.w3.org/2000/svg">
<path d="M17.7139 3.35001C17.705 3.21039 17.6496 3.07777 17.5565 2.97338C17.4634 2.86899 17.3379 2.79886 17.2002 2.77422C13.8213 2.16797 12.4107 1.72969 9.25762 0.305475C9.17673 0.268911 9.08897 0.25 9.0002 0.25C8.91143 0.25 8.82367 0.268911 8.74278 0.305475C5.58965 1.72969 4.17911 2.16797 0.8002 2.77422C0.662492 2.79886 0.537032 2.86899 0.443902 2.97338C0.350772 3.07777 0.295358 3.21039 0.286528 3.35001C0.136137 5.73711 0.45684 7.96133 1.24082 9.96094C1.88283 11.592 2.83294 13.0841 4.03926 14.3559C6.12793 16.5719 8.34551 17.5344 8.76856 17.7047C8.91889 17.7655 9.08698 17.7655 9.23731 17.7047C9.66036 17.5344 11.8779 16.5719 13.9666 14.3559C15.171 13.0837 16.1192 11.5916 16.7596 9.96094C17.5436 7.96133 17.8643 5.73711 17.7139 3.35001ZM12.5967 6.28399L8.26856 11.284C8.21291 11.3485 8.14466 11.4009 8.06802 11.438C7.99137 11.4752 7.90795 11.4963 7.82286 11.5H7.79708C7.6335 11.5 7.47643 11.436 7.35958 11.3215L5.4377 9.43868C5.37907 9.38122 5.33232 9.31278 5.30014 9.23727C5.26796 9.16175 5.25096 9.08063 5.25013 8.99855C5.24844 8.83277 5.31268 8.67311 5.42872 8.55469C5.54475 8.43628 5.70307 8.36881 5.86885 8.36712C6.03463 8.36544 6.19429 8.42968 6.3127 8.54571L7.75801 9.96329L11.6525 5.46602C11.761 5.34066 11.9148 5.26353 12.0802 5.25159C12.2455 5.23965 12.4088 5.29388 12.5342 5.40235C12.6595 5.51082 12.7367 5.66464 12.7486 5.82998C12.7606 5.99532 12.7063 6.15863 12.5979 6.28399H12.5967Z" fill="black"/>
</svg>
