<svg width="79" height="78" viewBox="0 0 79 78" fill="none" xmlns="http://www.w3.org/2000/svg">
<path d="M39.5 0C17.9721 0 0.5 17.4721 0.5 39C0.5 60.5279 17.9721 78 39.5 78C61.0279 78 78.5 60.5279 78.5 39C78.5 17.4721 61.0281 0 39.5 0ZM11.524 39C11.524 23.504 24.1079 10.92 39.5 10.92C45.324 10.92 50.8361 12.6881 55.308 15.808L16.4121 54.8081C13.292 50.3361 11.524 44.824 11.524 39ZM39.5 66.976C33.676 66.976 28.1639 65.208 23.692 62.0881L62.5881 23.192C65.7081 27.6641 67.476 33.176 67.476 39C67.476 54.496 54.996 66.976 39.5 66.976Z" fill="#D50000"/>
</svg>
