<svg width="31" height="30" viewBox="0 0 31 30" fill="none" xmlns="http://www.w3.org/2000/svg">
<rect width="30.6667" height="30" transform="translate(0.333496)" fill="#EEEEEE"/>
<path d="M12.3335 21C11.9668 21 11.6528 20.8693 11.3915 20.608C11.1302 20.3467 10.9997 20.0329 11.0002 19.6667V11H10.3335V9.66667H13.6668V9H17.6668V9.66667H21.0002V11H20.3335V19.6667C20.3335 20.0333 20.2028 20.3473 19.9415 20.6087C19.6802 20.87 19.3664 21.0004 19.0002 21H12.3335ZM19.0002 11H12.3335V19.6667H19.0002V11ZM13.6668 18.3333H15.0002V12.3333H13.6668V18.3333ZM16.3335 18.3333H17.6668V12.3333H16.3335V18.3333Z" fill="black"/>
</svg>
