<svg width="14" height="14" viewBox="0 0 14 14" fill="none" xmlns="http://www.w3.org/2000/svg">
<path d="M12.0335 9.3327C11.9881 9.27801 11.9436 9.22332 11.8998 9.17055C11.2983 8.44293 10.9343 8.00379 10.9343 5.94398C10.9343 4.87758 10.6792 4.00258 10.1764 3.34633C9.80557 2.86152 9.30436 2.49375 8.64373 2.22195C8.63523 2.21722 8.62764 2.21102 8.62131 2.20363C8.3837 1.40793 7.73346 0.875 7.0001 0.875C6.26674 0.875 5.61678 1.40793 5.37916 2.20281C5.37282 2.20993 5.36534 2.21594 5.35702 2.22059C3.81538 2.85523 3.06616 4.07285 3.06616 5.94316C3.06616 8.00379 2.70276 8.44293 2.10065 9.16973C2.0569 9.2225 2.01233 9.27609 1.96694 9.33187C1.84969 9.47328 1.7754 9.64531 1.75287 9.82761C1.73033 10.0099 1.7605 10.1949 1.83979 10.3605C2.0085 10.716 2.36807 10.9367 2.7785 10.9367H11.2247C11.6332 10.9367 11.9903 10.7163 12.1596 10.3625C12.2392 10.1967 12.2697 10.0116 12.2473 9.82912C12.225 9.64661 12.1508 9.47433 12.0335 9.3327Z" fill="black"/>
<path d="M7.00003 13.125C7.39516 13.1247 7.78283 13.0174 8.12194 12.8146C8.46104 12.6118 8.73893 12.321 8.92613 11.973C8.93495 11.9563 8.9393 11.9377 8.93877 11.9188C8.93824 11.8999 8.93284 11.8815 8.9231 11.8654C8.91336 11.8492 8.8996 11.8359 8.88317 11.8266C8.86674 11.8173 8.84819 11.8125 8.82933 11.8125H5.17128C5.15239 11.8124 5.13381 11.8173 5.11734 11.8265C5.10087 11.8358 5.08708 11.8491 5.07731 11.8653C5.06753 11.8814 5.06211 11.8999 5.06157 11.9187C5.06103 11.9376 5.06538 11.9563 5.07421 11.973C5.26139 12.3209 5.53923 12.6117 5.87828 12.8145C6.21733 13.0174 6.60495 13.1246 7.00003 13.125Z" fill="black"/>
</svg>
