<svg width="18" height="18" viewBox="0 0 18 18" fill="none" xmlns="http://www.w3.org/2000/svg">
<path d="M14.2735 17.7499C13.511 17.7499 12.4399 17.4741 10.836 16.578C8.88562 15.4843 7.37702 14.4745 5.43718 12.5397C3.56687 10.6706 2.65671 9.46043 1.38288 7.14246C-0.0561797 4.52527 0.189133 3.1534 0.463352 2.56707C0.789914 1.86629 1.27195 1.44715 1.89499 1.03113C2.24888 0.799271 2.62338 0.600514 3.01374 0.437382C3.0528 0.420585 3.08913 0.404569 3.12155 0.390116C3.31491 0.303007 3.60788 0.171366 3.97898 0.311991C4.22663 0.40496 4.44773 0.595194 4.79382 0.936991C5.50359 1.63699 6.47351 3.19598 6.83132 3.9616C7.07155 4.47762 7.23054 4.81824 7.23093 5.20027C7.23093 5.64754 7.00593 5.99246 6.73288 6.36473C6.68171 6.43465 6.63093 6.50144 6.58171 6.56629C6.28444 6.95691 6.21921 7.0698 6.26218 7.27137C6.34929 7.67644 6.9989 8.8823 8.06648 9.94754C9.13406 11.0128 10.3051 11.6214 10.7118 11.7081C10.9219 11.753 11.0372 11.685 11.4403 11.3772C11.4981 11.3331 11.5575 11.2874 11.6196 11.2417C12.036 10.9319 12.3649 10.7128 12.8016 10.7128H12.804C13.1841 10.7128 13.5094 10.8776 14.0485 11.1495C14.7516 11.5042 16.3575 12.4616 17.0618 13.1721C17.4044 13.5175 17.5954 13.7378 17.6887 13.985C17.8294 14.3573 17.6969 14.6491 17.6106 14.8444C17.5962 14.8768 17.5801 14.9124 17.5634 14.9518C17.3989 15.3415 17.199 15.7152 16.9661 16.0682C16.5509 16.6893 16.1301 17.1702 15.4278 17.4971C15.0671 17.6677 14.6725 17.7542 14.2735 17.7499Z" fill="black"/>
</svg>
