<svg width="20" height="20" viewBox="0 0 20 20" fill="none" xmlns="http://www.w3.org/2000/svg">
<path d="M6.25 10C6.25 9.83424 6.31585 9.67527 6.43306 9.55806C6.55027 9.44085 6.70924 9.375 6.875 9.375H12.5V5.3125C12.5 4.0625 11.1801 3.125 10 3.125H4.0625C3.48253 3.12562 2.92649 3.35629 2.51639 3.76639C2.10629 4.17649 1.87562 4.73253 1.875 5.3125V14.6875C1.87562 15.2675 2.10629 15.8235 2.51639 16.2336C2.92649 16.6437 3.48253 16.8744 4.0625 16.875H10.3125C10.8925 16.8744 11.4485 16.6437 11.8586 16.2336C12.2687 15.8235 12.4994 15.2675 12.5 14.6875V10.625H6.875C6.70924 10.625 6.55027 10.5592 6.43306 10.4419C6.31585 10.3247 6.25 10.1658 6.25 10Z" fill="#21272A"/>
<path d="M17.9418 9.55812L14.8168 6.43312C14.6986 6.32086 14.5413 6.2592 14.3783 6.26128C14.2153 6.26337 14.0596 6.32904 13.9444 6.44429C13.8291 6.55954 13.7635 6.71525 13.7614 6.87823C13.7593 7.04121 13.8209 7.19855 13.9332 7.31671L15.991 9.37492H12.5V10.6249H15.991L13.9332 12.6831C13.8727 12.7406 13.8244 12.8096 13.791 12.886C13.7576 12.9625 13.7398 13.0448 13.7387 13.1282C13.7377 13.2116 13.7533 13.2944 13.7847 13.3717C13.8162 13.449 13.8628 13.5192 13.9217 13.5782C13.9807 13.6372 14.0509 13.6837 14.1282 13.7152C14.2055 13.7466 14.2883 13.7622 14.3717 13.7612C14.4551 13.7601 14.5375 13.7424 14.6139 13.709C14.6904 13.6756 14.7593 13.6272 14.8168 13.5667L17.9418 10.4417C18.0589 10.3245 18.1247 10.1656 18.1247 9.99992C18.1247 9.83423 18.0589 9.67532 17.9418 9.55812Z" fill="#21272A"/>
</svg>
