<svg width="146" height="145" viewBox="0 0 146 145" fill="none" xmlns="http://www.w3.org/2000/svg">
<path d="M54.875 96.6667C60.0104 100.473 66.2635 102.708 73 102.708C79.7365 102.708 85.9896 100.473 91.125 96.6667" stroke="black" stroke-width="1.5" stroke-linecap="round"/>
<path d="M91.1249 72.5C94.4616 72.5 97.1666 68.4426 97.1666 63.4375C97.1666 58.4324 94.4616 54.375 91.1249 54.375C87.7882 54.375 85.0833 58.4324 85.0833 63.4375C85.0833 68.4426 87.7882 72.5 91.1249 72.5Z" fill="black"/>
<path d="M54.8749 72.5C58.2116 72.5 60.9166 68.4426 60.9166 63.4375C60.9166 58.4324 58.2116 54.375 54.8749 54.375C51.5382 54.375 48.8333 58.4324 48.8333 63.4375C48.8333 68.4426 51.5382 72.5 54.8749 72.5Z" fill="black"/>
<path opacity="0.5" d="M133.417 84.5833C133.417 107.366 133.417 118.761 126.336 125.836C119.261 132.917 107.866 132.917 85.0833 132.917M60.9166 132.917C38.1335 132.917 26.7389 132.917 19.6641 125.836C12.5833 118.761 12.5833 107.366 12.5833 84.5833M60.9166 12.0833C38.1335 12.0833 26.7389 12.0833 19.6641 19.1642C12.5833 26.239 12.5833 37.6336 12.5833 60.4167M85.0833 12.0833C107.866 12.0833 119.261 12.0833 126.336 19.1642C133.417 26.239 133.417 37.6336 133.417 60.4167" stroke="black" stroke-width="1.5" stroke-linecap="round"/>
</svg>
