<svg width="18" height="18" viewBox="0 0 18 18" fill="none" xmlns="http://www.w3.org/2000/svg">
<path d="M9 0.875C4.51992 0.875 0.875 4.51992 0.875 9C0.875 13.4801 4.51992 17.125 9 17.125C13.4801 17.125 17.125 13.4801 17.125 9C17.125 4.51992 13.4801 0.875 9 0.875ZM9 14C8.18359 14 7.53438 13.6539 7.44727 12.9227C7.44496 12.9008 7.44729 12.8787 7.4541 12.8578C7.46091 12.8369 7.47205 12.8177 7.4868 12.8014C7.50154 12.7851 7.51956 12.7721 7.53967 12.7633C7.55979 12.7544 7.58154 12.7499 7.60352 12.75H10.3945C10.4167 12.7498 10.4387 12.7544 10.459 12.7634C10.4793 12.7724 10.4974 12.7856 10.5122 12.8022C10.527 12.8187 10.5381 12.8383 10.5447 12.8594C10.5514 12.8806 10.5534 12.903 10.5508 12.925C10.4512 13.6426 9.80781 14 9 14ZM12.8281 12.125H5.17188C4.70937 12.125 4.46875 11.5391 4.73477 11.2266C5.37266 10.4711 5.82344 10.1535 5.82344 8.07031C5.82344 6.16133 6.82891 5.48398 7.65937 5.15352C7.71653 5.1297 7.76805 5.09417 7.81064 5.04923C7.85323 5.00429 7.88593 4.95093 7.90664 4.89258C8.05078 4.41406 8.45859 4 9 4C9.54141 4 9.94844 4.41406 10.0938 4.89297C10.1146 4.95131 10.1474 5.00465 10.19 5.04958C10.2327 5.09452 10.2842 5.13005 10.3414 5.15391C11.1699 5.48359 12.1773 6.16211 12.1773 8.0707C12.1773 10.1539 12.6277 10.4715 13.2656 11.227C13.5289 11.5391 13.2879 12.125 12.8281 12.125Z" fill="black"/>
</svg>
