<svg width="50" height="51" viewBox="0 0 50 51" fill="none" xmlns="http://www.w3.org/2000/svg">
<path d="M25 50.5C38.8071 50.5 50 39.3071 50 25.5C50 11.6929 38.8071 0.5 25 0.5C11.1929 0.5 0 11.6929 0 25.5C0 39.3071 11.1929 50.5 25 50.5Z" fill="#231F20"/>
<path d="M21.3832 17.8513C21.9074 17.5534 21.689 15.4684 24.2236 14.9155C26.7582 14.3626 27.5444 16.4897 27.5444 16.4897V19.1701C27.5444 19.1701 21.4924 19.3084 18.5445 21.2976C15.5966 23.2867 15.7481 27.1267 15.7481 27.1267C15.7481 27.1267 14.9615 31.7647 20.074 33.0409C25.1865 34.3172 28.5507 30.4455 28.5507 30.4455C29.0036 31.1654 29.531 31.8358 30.1241 32.4455C30.867 33.1263 31.0407 33.2113 31.5224 33.1688C32.004 33.1263 35.3674 30.318 35.3241 29.8501C35.2807 29.3822 33.4907 26.7013 33.4907 26.7013V15.6813C33.4907 15.6813 32.8353 13.0113 30.824 11.723C28.8128 10.4347 25.4491 10.5317 25.4491 10.5317C23.0011 10.3373 20.5732 11.1 18.6761 12.6592C15.6611 15.2547 16.4041 17.4672 16.5786 17.5526C16.7532 17.638 20.8591 18.1492 21.3832 17.8513Z" fill="white"/>
<path d="M27.6317 22.4892C27.6317 22.4892 24.5184 22.4358 23.0438 23.5529C21.5692 24.67 21.7329 26.8292 21.7329 26.8292C21.7329 26.8292 22.2575 29.4671 24.7041 29.0417C27.1508 28.6163 27.6317 25.2121 27.6317 25.2121V22.4892Z" fill="#231F20"/>
<path d="M11.4203 33.4227C11.4203 33.4227 16.7953 37.4644 23.7424 38.0181C30.6894 38.5719 36.5016 35.2523 36.5016 35.2523C36.5016 35.2523 36.8949 35.2523 37.0257 35.4652C37.0955 35.6723 37.0955 35.8965 37.0257 36.1035C37.0257 36.1035 32.5257 40.9969 24.1353 40.6135C15.7449 40.2302 11.0703 34.061 11.0703 34.061C11.0703 34.061 10.7536 33.6135 10.8519 33.4227C10.9503 33.2319 11.4203 33.4227 11.4203 33.4227Z" fill="#F8981D"/>
<path d="M34.0988 34.4456C34.0988 34.4456 35.3442 34.3181 36.2834 34.3181C36.8105 34.3133 37.3369 34.356 37.8563 34.4456C37.8563 34.4456 38.1729 34.5731 38.0313 35.5519C37.8896 36.5306 37.0154 38.1685 37.2884 38.3602C37.5613 38.5519 38.5775 37.5623 39.1217 36.3185C39.6658 35.0748 39.6459 33.5952 39.4713 33.3827C39.2967 33.1702 37.8546 32.9148 36.4562 33.0848C35.0579 33.2548 33.7492 34.2752 34.0988 34.4456Z" fill="#D98924"/>
</svg>
