<svg width="14" height="14" viewBox="0 0 14 14" fill="none" xmlns="http://www.w3.org/2000/svg">
<path d="M6.93572 7C8.37919 7 9.65451 5.64074 9.77947 3.96977C9.84154 3.13031 9.57822 2.34746 9.0379 1.76586C8.50333 1.19137 7.75603 0.875 6.93572 0.875C6.10884 0.875 5.36099 1.18945 4.83025 1.76039C4.29349 2.33762 4.03181 3.12211 4.09197 3.96922C4.21474 5.64047 5.48978 7 6.93572 7Z" fill="black"/>
<path d="M12.5248 12.0247C12.294 10.7445 11.5735 9.66902 10.4415 8.91434C9.43606 8.24414 8.16211 7.875 6.85426 7.875C5.54641 7.875 4.27247 8.24414 3.26704 8.91406C2.135 9.66875 1.4145 10.7442 1.18372 12.0244C1.13094 12.3178 1.20258 12.6079 1.38032 12.8204C1.46093 12.9172 1.56215 12.9948 1.67659 13.0475C1.79102 13.1002 1.91579 13.1267 2.04176 13.125H11.6668C11.7928 13.1268 11.9177 13.1004 12.0322 13.0477C12.1467 12.9951 12.2481 12.9175 12.3288 12.8207C12.5059 12.6082 12.5776 12.3181 12.5248 12.0247Z" fill="black"/>
</svg>
