<svg width="20" height="20" viewBox="0 0 20 20" fill="none" xmlns="http://www.w3.org/2000/svg">
<g clip-path="url(#clip0_446_33739)">
<path d="M8.53583 13.5951L5 10.0584L6.17833 8.88008L8.53583 11.2368L13.2492 6.52258L14.4283 7.70175L8.53583 13.5934V13.5951Z" fill="black"/>
<path fill-rule="evenodd" clip-rule="evenodd" d="M0.833496 10C0.833496 4.93754 4.93766 0.833374 10.0002 0.833374C15.0627 0.833374 19.1668 4.93754 19.1668 10C19.1668 15.0625 15.0627 19.1667 10.0002 19.1667C4.93766 19.1667 0.833496 15.0625 0.833496 10ZM10.0002 17.5C9.01525 17.5 8.03998 17.306 7.13004 16.9291C6.2201 16.5522 5.3933 15.9998 4.69686 15.3033C4.00042 14.6069 3.44798 13.7801 3.07107 12.8702C2.69416 11.9602 2.50016 10.985 2.50016 10C2.50016 9.01513 2.69416 8.03986 3.07107 7.12992C3.44798 6.21997 4.00042 5.39318 4.69686 4.69674C5.3933 4.0003 6.2201 3.44785 7.13004 3.07094C8.03998 2.69403 9.01525 2.50004 10.0002 2.50004C11.9893 2.50004 13.8969 3.29022 15.3035 4.69674C16.71 6.10326 17.5002 8.01092 17.5002 10C17.5002 11.9892 16.71 13.8968 15.3035 15.3033C13.8969 16.7099 11.9893 17.5 10.0002 17.5Z" fill="black"/>
</g>
<defs>
<clipPath id="clip0_446_33739">
<rect width="20" height="20" fill="white"/>
</clipPath>
</defs>
</svg>
