<svg width="18" height="18" viewBox="0 0 18 18" fill="none" xmlns="http://www.w3.org/2000/svg">
<path fill-rule="evenodd" clip-rule="evenodd" d="M3.375 2.125C2.68464 2.125 2.125 2.68464 2.125 3.375V14.625C2.125 15.3154 2.68464 15.875 3.375 15.875H14.625C15.3154 15.875 15.875 15.3154 15.875 14.625V3.375C15.875 2.68464 15.3154 2.125 14.625 2.125H3.375ZM0.875 3.375C0.875 1.99429 1.99429 0.875 3.375 0.875H14.625C16.0057 0.875 17.125 1.99429 17.125 3.375V14.625C17.125 16.0057 16.0057 17.125 14.625 17.125H3.375C1.99429 17.125 0.875 16.0057 0.875 14.625V3.375Z" fill="#707B81"/>
</svg>
