<svg width="17" height="18" viewBox="0 0 17 18" fill="none" xmlns="http://www.w3.org/2000/svg">
<path d="M8.50027 9C6.43386 9 4.61355 7.05859 4.43777 4.67188C4.34793 3.46094 4.72293 2.33984 5.49246 1.51562C6.25027 0.699219 7.32058 0.25 8.50027 0.25C9.67214 0.25 10.7386 0.703125 11.5003 1.52344C12.2737 2.35547 12.6487 3.47266 12.5589 4.67188C12.3831 7.05859 10.5628 9 8.50027 9ZM8.50027 1.5C7.67214 1.5 6.92605 1.80859 6.40652 2.36719C5.87918 2.93359 5.62136 3.72266 5.68386 4.58203C5.80886 6.30078 7.09793 7.75391 8.49636 7.75391C9.8948 7.75391 11.1839 6.30078 11.3089 4.58203C11.3714 3.73437 11.1136 2.94922 10.5784 2.375C10.0628 1.80859 9.32058 1.5 8.50027 1.5Z" fill="#21272A"/>
<path d="M15.3753 17.75H1.62529C1.25029 17.75 0.914353 17.5937 0.679978 17.3164C0.426072 17.0117 0.324509 16.5977 0.398728 16.1797C0.726853 14.3516 1.7581 12.8125 3.37529 11.7383C4.81279 10.7812 6.6331 10.2539 8.50029 10.2539C10.3675 10.2539 12.1878 10.7812 13.6253 11.7383C15.2425 12.8164 16.2737 14.3516 16.6019 16.1797C16.6761 16.5977 16.5745 17.0117 16.3206 17.3164C16.0862 17.5937 15.7503 17.75 15.3753 17.75ZM1.6331 16.5H15.3675C15.3753 16.4805 15.3792 16.4492 15.3714 16.3984C14.7659 13.0352 11.3831 11.5 8.50029 11.5C5.61748 11.5 2.23467 13.0352 1.6292 16.3984C1.62138 16.4492 1.62529 16.4805 1.6331 16.5Z" fill="#21272A"/>
</svg>
