<svg width="21" height="20" viewBox="0 0 21 20" fill="none" xmlns="http://www.w3.org/2000/svg">
<path fill-rule="evenodd" clip-rule="evenodd" d="M3.625 7.65625C3.97018 7.65625 4.25 7.93607 4.25 8.28125V17.5H7.375V12.8125C7.375 12.3981 7.53962 12.0007 7.83265 11.7076C8.12567 11.4146 8.5231 11.25 8.9375 11.25H12.0625C12.4769 11.25 12.8743 11.4146 13.1674 11.7076C13.4604 12.0007 13.625 12.3981 13.625 12.8125V17.5H16.75V8.28125C16.75 7.93607 17.0298 7.65625 17.375 7.65625C17.7202 7.65625 18 7.93607 18 8.28125V17.5C18 17.8315 17.8683 18.1495 17.6339 18.3839C17.3995 18.6183 17.0815 18.75 16.75 18.75H13C12.6548 18.75 12.375 18.4702 12.375 18.125V12.8125C12.375 12.7296 12.3421 12.6501 12.2835 12.5915C12.2249 12.5329 12.1454 12.5 12.0625 12.5H8.9375C8.85462 12.5 8.77513 12.5329 8.71653 12.5915C8.65792 12.6501 8.625 12.7296 8.625 12.8125V18.125C8.625 18.4702 8.34518 18.75 8 18.75H4.25C3.91848 18.75 3.60054 18.6183 3.36612 18.3839C3.1317 18.1495 3 17.8315 3 17.5V8.28125C3 7.93607 3.27982 7.65625 3.625 7.65625Z" fill="black"/>
<path fill-rule="evenodd" clip-rule="evenodd" d="M11.3661 1.58796L19.6822 9.54856C19.9315 9.78725 19.9402 10.1829 19.7015 10.4322C19.4628 10.6816 19.0672 10.6902 18.8178 10.4515L10.5125 2.50128C10.5087 2.50094 10.5046 2.50074 10.5002 2.50073C10.4957 2.50072 10.4914 2.50092 10.4875 2.50127L2.18219 10.4515C1.93284 10.6902 1.5372 10.6816 1.29851 10.4322C1.05982 10.1829 1.06847 9.78725 1.31781 9.54856L9.63445 1.58744C9.8894 1.32897 10.2368 1.25026 10.5024 1.25073C10.7669 1.25121 11.1131 1.33056 11.3661 1.58796Z" fill="black"/>
<path fill-rule="evenodd" clip-rule="evenodd" d="M13.625 2.5C13.625 2.15482 13.9048 1.875 14.25 1.875H16.125C16.4702 1.875 16.75 2.15482 16.75 2.5V6.99219C16.75 7.33737 16.4702 7.61719 16.125 7.61719C15.7798 7.61719 15.5 7.33737 15.5 6.99219V3.125H14.875V5.19531C14.875 5.54049 14.5952 5.82031 14.25 5.82031C13.9048 5.82031 13.625 5.54049 13.625 5.19531V2.5Z" fill="black"/>
</svg>
