<svg width="20" height="20" viewBox="0 0 20 20" fill="none" xmlns="http://www.w3.org/2000/svg">
<g clip-path="url(#clip0_2684_2200)">
<path d="M8.88439 3.35022L8.72501 4.32522C8.71805 4.38219 8.72691 4.43997 8.75063 4.49224C8.77434 4.5445 8.81198 4.58923 8.85944 4.62151C8.90689 4.65379 8.96232 4.67238 9.01964 4.67524C9.07696 4.6781 9.13396 4.66512 9.18439 4.63772L10 4.1971L10.8156 4.65022C10.8617 4.67509 10.9133 4.68798 10.9656 4.68772C11.0304 4.68821 11.0938 4.66856 11.1469 4.63147C11.1959 4.59713 11.2341 4.54942 11.2568 4.49402C11.2795 4.43862 11.2858 4.37786 11.275 4.31897L11.1156 3.34397L11.7875 2.65647C11.8266 2.61573 11.8539 2.56517 11.8666 2.51014C11.8792 2.45512 11.8768 2.39769 11.8594 2.34397C11.841 2.28944 11.808 2.24103 11.7639 2.20409C11.7198 2.16714 11.6663 2.1431 11.6094 2.1346L10.6938 1.99397L10.2844 1.11897C10.2595 1.06441 10.2195 1.01815 10.1691 0.985718C10.1187 0.953282 10.06 0.936035 10 0.936035C9.94006 0.936035 9.88137 0.953282 9.83095 0.985718C9.78053 1.01815 9.7405 1.06441 9.71564 1.11897L9.30626 1.99397L8.39064 2.1346C8.33373 2.1431 8.28028 2.16714 8.23616 2.20409C8.19205 2.24103 8.159 2.28944 8.14064 2.34397C8.12327 2.39769 8.12078 2.45512 8.13344 2.51014C8.1461 2.56517 8.17342 2.61573 8.21252 2.65647L8.88439 3.35022Z" fill="black"/>
<path d="M11.6094 16.5096L10.6938 16.369L10.2844 15.494C10.2595 15.4394 10.2195 15.3932 10.1691 15.3607C10.1187 15.3283 10.06 15.311 10 15.311C9.94006 15.311 9.88137 15.3283 9.83095 15.3607C9.78053 15.3932 9.7405 15.4394 9.71564 15.494L9.30626 16.369L8.39064 16.5096C8.33373 16.5181 8.28028 16.5421 8.23616 16.5791C8.19205 16.616 8.159 16.6644 8.14064 16.719C8.12327 16.7727 8.12078 16.8301 8.13344 16.8851C8.1461 16.9402 8.17342 16.9907 8.21252 17.0315L8.88439 17.719L8.72501 18.694C8.71805 18.7509 8.72691 18.8087 8.75063 18.861C8.77434 18.9133 8.81198 18.958 8.85944 18.9903C8.90689 19.0225 8.96232 19.0411 9.01964 19.044C9.07696 19.0468 9.13396 19.0339 9.18439 19.0065L10 18.5721L10.8156 19.0252C10.8617 19.0501 10.9133 19.063 10.9656 19.0627C11.0304 19.0632 11.0938 19.0436 11.1469 19.0065C11.1959 18.9721 11.2341 18.9244 11.2568 18.869C11.2795 18.8136 11.2858 18.7529 11.275 18.694L11.1156 17.719L11.7875 17.0315C11.8266 16.9907 11.8539 16.9402 11.8666 16.8851C11.8792 16.8301 11.8768 16.7727 11.8594 16.719C11.841 16.6644 11.808 16.616 11.7639 16.5791C11.7198 16.5421 11.6663 16.5181 11.6094 16.5096Z" fill="black"/>
<path d="M3.77814 11.8752C3.84293 11.8757 3.90626 11.8561 3.95939 11.819C4.00844 11.7846 4.04659 11.7369 4.06931 11.6815C4.09202 11.6261 4.09834 11.5654 4.08751 11.5065L3.92814 10.5315L4.60001 9.84397C4.63911 9.80323 4.66643 9.75267 4.67909 9.69764C4.69175 9.64262 4.68926 9.58519 4.67189 9.53147C4.65353 9.47694 4.62048 9.42853 4.57637 9.39159C4.53225 9.35464 4.4788 9.3306 4.42189 9.3221L3.50626 9.18147L3.09689 8.30647C3.07203 8.25191 3.032 8.20565 2.98158 8.17322C2.93116 8.14078 2.87247 8.12354 2.81251 8.12354C2.75256 8.12354 2.69387 8.14078 2.64345 8.17322C2.59303 8.20565 2.553 8.25191 2.52814 8.30647L2.11876 9.18147L1.20314 9.3221C1.14623 9.3306 1.09278 9.35464 1.04866 9.39159C1.00455 9.42853 0.971496 9.47694 0.95314 9.53147C0.935772 9.58519 0.933284 9.64262 0.94594 9.69764C0.958595 9.75267 0.985922 9.80323 1.02501 9.84397L1.69689 10.5315L1.53751 11.5065C1.53055 11.5634 1.53941 11.6212 1.56313 11.6735C1.58684 11.7258 1.62448 11.7705 1.67194 11.8028C1.71939 11.835 1.77482 11.8536 1.83214 11.8565C1.88946 11.8593 1.94646 11.8464 1.99689 11.819L2.81251 11.3846L3.62814 11.8377C3.67421 11.8626 3.72579 11.8755 3.77814 11.8752Z" fill="black"/>
<path d="M19.0625 9.53147C19.0442 9.47694 19.0111 9.42853 18.967 9.39159C18.9229 9.35464 18.8694 9.3306 18.8125 9.3221L17.8969 9.18147L17.4875 8.30647C17.4627 8.25191 17.4226 8.20565 17.3722 8.17322C17.3218 8.14078 17.2631 8.12354 17.2031 8.12354C17.1432 8.12354 17.0845 8.14078 17.0341 8.17322C16.9837 8.20565 16.9436 8.25191 16.9188 8.30647L16.5094 9.18147L15.5938 9.3221C15.5369 9.3306 15.4834 9.35464 15.4393 9.39159C15.3952 9.42853 15.3621 9.47694 15.3438 9.53147C15.3264 9.58519 15.3239 9.64262 15.3366 9.69764C15.3492 9.75267 15.3765 9.80323 15.4156 9.84397L16.0875 10.5315L15.9281 11.5065C15.9212 11.5634 15.93 11.6212 15.9537 11.6735C15.9775 11.7258 16.0151 11.7705 16.0626 11.8028C16.11 11.835 16.1654 11.8536 16.2228 11.8565C16.2801 11.8593 16.3371 11.8464 16.3875 11.819L17.1875 11.3846L18.0031 11.8377C18.0492 11.8626 18.1008 11.8755 18.1531 11.8752C18.2179 11.8757 18.2813 11.8561 18.3344 11.819C18.3834 11.7846 18.4216 11.7369 18.4443 11.6815C18.467 11.6261 18.4733 11.5654 18.4625 11.5065L18.3031 10.5315L18.975 9.84397C19.0168 9.80489 19.0471 9.75507 19.0625 9.69997C19.0779 9.64486 19.0779 9.58658 19.0625 9.53147Z" fill="black"/>
<path d="M13.8844 5.53772L13.725 6.51272C13.7181 6.56969 13.7269 6.62747 13.7506 6.67974C13.7743 6.732 13.812 6.77673 13.8594 6.80901C13.9069 6.84129 13.9623 6.85988 14.0196 6.86274C14.077 6.8656 14.134 6.85262 14.1844 6.82522L15 6.3846L15.8156 6.83772C15.8617 6.86259 15.9133 6.87548 15.9656 6.87522C16.0304 6.87571 16.0938 6.85606 16.1469 6.81897C16.1959 6.78463 16.2341 6.73692 16.2568 6.68152C16.2795 6.62612 16.2858 6.56536 16.275 6.50647L16.1156 5.53147L16.7875 4.84397C16.8266 4.80323 16.8539 4.75267 16.8666 4.69764C16.8792 4.64262 16.8768 4.58519 16.8594 4.53147C16.841 4.47694 16.808 4.42853 16.7639 4.39159C16.7198 4.35464 16.6663 4.3306 16.6094 4.3221L15.6938 4.18147L15.2844 3.30647C15.2595 3.25191 15.2195 3.20565 15.1691 3.17322C15.1187 3.14078 15.06 3.12354 15 3.12354C14.9401 3.12354 14.8814 3.14078 14.8309 3.17322C14.7805 3.20565 14.7405 3.25191 14.7156 3.30647L14.3063 4.18147L13.3906 4.3221C13.3337 4.3306 13.2803 4.35464 13.2362 4.39159C13.1921 4.42853 13.159 4.47694 13.1406 4.53147C13.1233 4.58519 13.1208 4.64262 13.1334 4.69764C13.1461 4.75267 13.1734 4.80323 13.2125 4.84397L13.8844 5.53772Z" fill="black"/>
<path d="M3.88439 5.53772L3.72501 6.51272C3.71805 6.56969 3.72691 6.62747 3.75063 6.67974C3.77434 6.732 3.81198 6.77673 3.85944 6.80901C3.90689 6.84129 3.96232 6.85988 4.01964 6.86274C4.07696 6.8656 4.13396 6.85262 4.18439 6.82522L5.00001 6.3846L5.81564 6.83772C5.86171 6.86259 5.91329 6.87548 5.96564 6.87522C6.03043 6.87571 6.09376 6.85606 6.14689 6.81897C6.19594 6.78463 6.23409 6.73692 6.25681 6.68152C6.27952 6.62612 6.28584 6.56536 6.27501 6.50647L6.11564 5.53147L6.78751 4.84397C6.82661 4.80323 6.85393 4.75267 6.86659 4.69764C6.87925 4.64262 6.87676 4.58519 6.85939 4.53147C6.84103 4.47694 6.80798 4.42853 6.76387 4.39159C6.71975 4.35464 6.6663 4.3306 6.60939 4.3221L5.69376 4.18147L5.28439 3.30647C5.25953 3.25191 5.2195 3.20565 5.16908 3.17322C5.11866 3.14078 5.05997 3.12354 5.00001 3.12354C4.94006 3.12354 4.88137 3.14078 4.83095 3.17322C4.78053 3.20565 4.7405 3.25191 4.71564 3.30647L4.30626 4.18147L3.39064 4.3221C3.33373 4.3306 3.28028 4.35464 3.23616 4.39159C3.19205 4.42853 3.159 4.47694 3.14064 4.53147C3.12327 4.58519 3.12078 4.64262 3.13344 4.69764C3.1461 4.75267 3.17342 4.80323 3.21251 4.84397L3.88439 5.53772Z" fill="black"/>
<path d="M6.92189 14.0096L6.00626 13.869L5.59689 12.994C5.57203 12.9394 5.532 12.8932 5.48158 12.8607C5.43116 12.8283 5.37247 12.811 5.31251 12.811C5.25256 12.811 5.19387 12.8283 5.14345 12.8607C5.09303 12.8932 5.053 12.9394 5.02814 12.994L4.61876 13.869L3.70314 14.0096C3.64623 14.0181 3.59278 14.0421 3.54866 14.0791C3.50455 14.116 3.4715 14.1644 3.45314 14.219C3.43577 14.2727 3.43328 14.3301 3.44594 14.3851C3.4586 14.4402 3.48592 14.4907 3.52501 14.5315L4.19689 15.219L4.03751 16.194C4.03055 16.2509 4.03941 16.3087 4.06313 16.361C4.08684 16.4133 4.12448 16.458 4.17194 16.4903C4.21939 16.5225 4.27482 16.5411 4.33214 16.544C4.38946 16.5468 4.44646 16.5339 4.49689 16.5065L5.31251 16.0721L6.12814 16.5252C6.17421 16.5501 6.22579 16.563 6.27814 16.5627C6.34293 16.5632 6.40626 16.5436 6.45939 16.5065C6.50844 16.4721 6.54659 16.4244 6.56931 16.369C6.59202 16.3136 6.59834 16.2529 6.58751 16.194L6.42814 15.219L7.10001 14.5315C7.13911 14.4907 7.16643 14.4402 7.17909 14.3851C7.19175 14.3301 7.18926 14.2727 7.17189 14.219C7.15353 14.1644 7.12048 14.116 7.07637 14.0791C7.03225 14.0421 6.9788 14.0181 6.92189 14.0096Z" fill="black"/>
<path d="M16.6094 14.3221L15.6938 14.1815L15.2844 13.3065C15.2595 13.2519 15.2195 13.2057 15.1691 13.1732C15.1187 13.1408 15.06 13.1235 15 13.1235C14.9401 13.1235 14.8814 13.1408 14.8309 13.1732C14.7805 13.2057 14.7405 13.2519 14.7156 13.3065L14.3063 14.1815L13.3906 14.3221C13.3337 14.3306 13.2803 14.3546 13.2362 14.3916C13.1921 14.4285 13.159 14.4769 13.1406 14.5315C13.1233 14.5852 13.1208 14.6426 13.1334 14.6976C13.1461 14.7527 13.1734 14.8032 13.2125 14.844L13.8844 15.5315L13.725 16.5065C13.7181 16.5634 13.7269 16.6212 13.7506 16.6735C13.7743 16.7258 13.812 16.7705 13.8594 16.8028C13.9069 16.835 13.9623 16.8536 14.0196 16.8565C14.077 16.8593 14.134 16.8464 14.1844 16.819L15 16.3846L15.8156 16.8377C15.8617 16.8626 15.9133 16.8755 15.9656 16.8752C16.0304 16.8757 16.0938 16.8561 16.1469 16.819C16.1959 16.7846 16.2341 16.7369 16.2568 16.6815C16.2795 16.6261 16.2858 16.5654 16.275 16.5065L16.1156 15.5315L16.7875 14.844C16.8266 14.8032 16.8539 14.7527 16.8666 14.6976C16.8792 14.6426 16.8768 14.5852 16.8594 14.5315C16.841 14.4769 16.808 14.4285 16.7639 14.3916C16.7198 14.3546 16.6663 14.3306 16.6094 14.3221Z" fill="black"/>
<path d="M11.875 8.75V8.125C11.875 7.62772 11.6775 7.15081 11.3258 6.79917C10.9742 6.44754 10.4973 6.25 10 6.25C9.50272 6.25 9.02581 6.44754 8.67417 6.79917C8.32254 7.15081 8.125 7.62772 8.125 8.125V8.75C7.87636 8.75 7.6379 8.84877 7.46209 9.02459C7.28627 9.2004 7.1875 9.43886 7.1875 9.6875V12.1875C7.1875 12.4361 7.28627 12.6746 7.46209 12.8504C7.6379 13.0262 7.87636 13.125 8.125 13.125H11.875C12.1236 13.125 12.3621 13.0262 12.5379 12.8504C12.7137 12.6746 12.8125 12.4361 12.8125 12.1875V9.6875C12.8125 9.43886 12.7137 9.2004 12.5379 9.02459C12.3621 8.84877 12.1236 8.75 11.875 8.75ZM11.1594 10.5344L9.90937 11.7844C9.88032 11.8137 9.84576 11.8369 9.80768 11.8528C9.7696 11.8686 9.72875 11.8768 9.6875 11.8768C9.64625 11.8768 9.6054 11.8686 9.56732 11.8528C9.52924 11.8369 9.49468 11.8137 9.46563 11.7844L8.84063 11.1594C8.78178 11.1005 8.74872 11.0207 8.74872 10.9375C8.74872 10.8543 8.78178 10.7745 8.84063 10.7156C8.89947 10.6568 8.97928 10.6237 9.0625 10.6237C9.14572 10.6237 9.22553 10.6568 9.28437 10.7156L9.6875 11.1219L10.7156 10.0906C10.7745 10.0318 10.8543 9.99872 10.9375 9.99872C11.0207 9.99872 11.1005 10.0318 11.1594 10.0906C11.2182 10.1495 11.2513 10.2293 11.2513 10.3125C11.2513 10.3957 11.2182 10.4755 11.1594 10.5344ZM8.75 8.125C8.75 7.79348 8.8817 7.47554 9.11612 7.24112C9.35054 7.0067 9.66848 6.875 10 6.875C10.3315 6.875 10.6495 7.0067 10.8839 7.24112C11.1183 7.47554 11.25 7.79348 11.25 8.125V8.75H8.75V8.125Z" fill="black"/>
</g>
<defs>
<clipPath id="clip0_2684_2200">
<rect width="20" height="20" fill="white"/>
</clipPath>
</defs>
</svg>
