<svg width="17" height="16" viewBox="0 0 17 16" fill="none" xmlns="http://www.w3.org/2000/svg">
<path fill-rule="evenodd" clip-rule="evenodd" d="M16.5 8C16.5 12.4183 12.9183 16 8.5 16C4.08172 16 0.5 12.4183 0.5 8C0.5 3.58172 4.08172 0 8.5 0C12.9183 0 16.5 3.58172 16.5 8ZM11.9766 12.8907C10.9958 13.5892 9.79586 14 8.5 14C5.18629 14 2.5 11.3137 2.5 8C2.5 6.70414 2.91081 5.50423 3.6093 4.52339L11.9766 12.8907ZM13.3908 11.4765L5.02354 3.1092C6.00434 2.41077 7.2042 2 8.5 2C11.8137 2 14.5 4.68629 14.5 8C14.5 9.2958 14.0892 10.4957 13.3908 11.4765Z" fill="#D50000"/>
</svg>
