<svg width="151" height="150" viewBox="0 0 151 150" fill="none" xmlns="http://www.w3.org/2000/svg">
<mask id="mask0_215_13666" style="mask-type:alpha" maskUnits="userSpaceOnUse" x="0" y="0" width="151" height="150">
<rect x="0.5" width="150" height="150" rx="75" fill="#D9D9D9"/>
</mask>
<g mask="url(#mask0_215_13666)">
<rect x="0.5" width="150" height="150" rx="75" fill="#DEFFDE"/>
<path d="M121.414 138.328C121.414 153.891 29.0839 153.891 29.0839 138.328C29.0839 122.765 65.5182 116.714 75.2489 116.714C84.9804 116.714 121.414 122.766 121.414 138.328Z" fill="black" fill-opacity="0.5"/>
<path d="M75.249 124.717C70.7313 124.717 67.0697 121.055 67.0697 116.538V97.9036H83.4282V116.538C83.4282 121.055 79.7667 124.717 75.249 124.717Z" fill="#E4E4E4"/>
<path d="M83.4251 111.75V104.617H67.0681V111.75C69.5947 112.778 72.3608 113.342 75.2505 113.342C78.1402 113.342 80.8985 112.778 83.4251 111.75Z" fill="#8FB28F"/>
<path d="M75.2489 108.198C63.2095 108.198 53.4486 98.4384 53.4486 86.399V65.0452C53.4486 53.0058 63.2087 43.2457 75.2481 43.2457C87.2876 43.2457 97.0477 53.0058 97.0477 65.0452V86.3982C97.0492 98.4384 87.2891 108.198 75.2489 108.198Z" fill="#E4E4E4"/>
<path d="M57.0454 85.2171C57.8021 82.0123 55.8176 78.8009 52.6128 78.0441C49.4081 77.2874 46.1966 79.2719 45.4399 82.4767C44.6832 85.6814 46.6677 88.8929 49.8725 89.6496C53.0772 90.4063 56.2886 88.4218 57.0454 85.2171Z" fill="#E4E4E4"/>
<path d="M46.9923 84.2155C46.779 84.2155 46.606 84.0424 46.606 83.8291C46.606 81.2678 48.6898 79.1847 51.2504 79.1847C51.4636 79.1847 51.6367 79.3578 51.6367 79.571C51.6367 79.7843 51.4636 79.9574 51.2504 79.9574C49.1155 79.9574 47.3786 81.6943 47.3786 83.8291C47.3786 84.0424 47.2063 84.2155 46.9923 84.2155Z" fill="#00B000"/>
<path d="M100.622 89.6118C103.826 88.8551 105.811 85.6436 105.054 82.4389C104.298 79.2341 101.086 77.2496 97.8814 78.0063C94.6766 78.7631 92.6921 81.9745 93.4488 85.1793C94.2055 88.384 97.417 90.3685 100.622 89.6118Z" fill="#E4E4E4"/>
<path d="M103.505 84.2155C103.292 84.2155 103.119 84.0424 103.119 83.8291C103.119 81.6943 101.382 79.9574 99.2466 79.9574C99.0333 79.9574 98.8602 79.7843 98.8602 79.5711C98.8602 79.3578 99.0333 79.1847 99.2466 79.1847C101.808 79.1847 103.892 81.2686 103.892 83.8291C103.892 84.0424 103.719 84.2155 103.505 84.2155Z" fill="#00B000"/>
<path d="M101.85 47.9381C99.1161 46.4229 95.6638 47.1816 92.8159 48.0524C91.038 33.6626 60.5832 44.5214 55.2489 52.1745C52.0725 55.4729 50.1316 62.1656 51.9543 66.613C52.0339 66.7745 52.1243 66.9151 52.2247 67.0372L53.4494 78.2893C55.9574 78.2893 57.3899 70.851 58.0799 65.7106C62.8556 62.4229 68.5083 56.1158 68.5083 56.1158C68.2301 62.3704 81.8211 67.0248 92.3299 65.0283C92.982 70.1626 94.4276 78.2893 97.0492 78.2893L98.7545 62.6169C101.286 61.0113 103.174 58.6764 103.925 55.4637C104.922 52.822 104.264 49.4022 101.85 47.9381Z" fill="#41C441"/>
</g>
</svg>
