<svg width="23" height="22" viewBox="0 0 23 22" fill="none" xmlns="http://www.w3.org/2000/svg">
<g clip-path="url(#clip0_832_2195)">
<path d="M8.0625 12.375H2.5625C2.01568 12.3744 1.49142 12.1569 1.10476 11.7702C0.718092 11.3836 0.500601 10.8593 0.5 10.3125L0.5 2.0625C0.500601 1.51568 0.718092 0.991419 1.10476 0.604756C1.49142 0.218092 2.01568 0.000600517 2.5625 0H7.40353C7.49461 1.62463e-05 7.58478 0.0181298 7.6688 0.0532886C7.75282 0.0884474 7.82902 0.13995 7.89296 0.204806L9.92693 2.26731C10.0538 2.39595 10.1249 2.56933 10.125 2.75V10.3125C10.1244 10.8593 9.90691 11.3836 9.52024 11.7702C9.13358 12.1569 8.60932 12.3744 8.0625 12.375ZM2.5625 1.375C2.38021 1.37516 2.20544 1.44765 2.07655 1.57655C1.94765 1.70544 1.87516 1.88021 1.875 2.0625V10.3125C1.87516 10.4948 1.94765 10.6696 2.07655 10.7985C2.20544 10.9274 2.38021 10.9998 2.5625 11H8.0625C8.24479 10.9998 8.41956 10.9274 8.54846 10.7985C8.67735 10.6696 8.74984 10.4948 8.75 10.3125V3.03187L7.11581 1.375H2.5625Z" fill="#00B000"/>
<path d="M9.4375 3.4375H7.375C7.19266 3.4375 7.0178 3.36507 6.88886 3.23614C6.75993 3.1072 6.6875 2.93234 6.6875 2.75V0.6875C6.6875 0.505164 6.75993 0.330295 6.88886 0.201364C7.0178 0.0724328 7.19266 0 7.375 0C7.55734 0 7.7322 0.0724328 7.86114 0.201364C7.99007 0.330295 8.0625 0.505164 8.0625 0.6875V2.0625H9.4375C9.61984 2.0625 9.7947 2.13493 9.92364 2.26386C10.0526 2.3928 10.125 2.56766 10.125 2.75C10.125 2.93234 10.0526 3.1072 9.92364 3.23614C9.7947 3.36507 9.61984 3.4375 9.4375 3.4375Z" fill="#00B000"/>
<path d="M6.6875 6.1875H3.9375C3.75516 6.1875 3.5803 6.11507 3.45136 5.98614C3.32243 5.8572 3.25 5.68234 3.25 5.5C3.25 5.31766 3.32243 5.1428 3.45136 5.01386C3.5803 4.88493 3.75516 4.8125 3.9375 4.8125H6.6875C6.86984 4.8125 7.0447 4.88493 7.17364 5.01386C7.30257 5.1428 7.375 5.31766 7.375 5.5C7.375 5.68234 7.30257 5.8572 7.17364 5.98614C7.0447 6.11507 6.86984 6.1875 6.6875 6.1875Z" fill="#00B000"/>
<path d="M6.6875 8.9375H3.9375C3.75516 8.9375 3.5803 8.86507 3.45136 8.73614C3.32243 8.6072 3.25 8.43234 3.25 8.25C3.25 8.06766 3.32243 7.8928 3.45136 7.76386C3.5803 7.63493 3.75516 7.5625 3.9375 7.5625H6.6875C6.86984 7.5625 7.0447 7.63493 7.17364 7.76386C7.30257 7.8928 7.375 8.06766 7.375 8.25C7.375 8.43234 7.30257 8.6072 7.17364 8.73614C7.0447 8.86507 6.86984 8.9375 6.6875 8.9375Z" fill="#00B000"/>
<path d="M20.4375 22H14.9375C14.3907 21.9994 13.8664 21.7819 13.4798 21.3952C13.0931 21.0086 12.8756 20.4843 12.875 19.9375V11.6875C12.8756 11.1407 13.0931 10.6164 13.4798 10.2298C13.8664 9.84309 14.3907 9.6256 14.9375 9.625H19.7785C19.8696 9.62502 19.9598 9.64313 20.0438 9.67829C20.1278 9.71345 20.204 9.76495 20.268 9.82981L22.3019 11.8923C22.4288 12.0209 22.4999 12.1943 22.5 12.375V19.9375C22.4994 20.4843 22.2819 21.0086 21.8952 21.3952C21.5086 21.7819 20.9843 21.9994 20.4375 22ZM14.9375 11C14.7552 11.0002 14.5804 11.0726 14.4515 11.2015C14.3226 11.3304 14.2502 11.5052 14.25 11.6875V19.9375C14.2502 20.1198 14.3226 20.2946 14.4515 20.4235C14.5804 20.5524 14.7552 20.6248 14.9375 20.625H20.4375C20.6198 20.6248 20.7946 20.5524 20.9235 20.4235C21.0524 20.2946 21.1248 20.1198 21.125 19.9375V12.6569L19.4908 11H14.9375Z" fill="#00B000"/>
<path d="M21.8125 13.0625H19.75C19.5677 13.0625 19.3928 12.9901 19.2639 12.8611C19.1349 12.7322 19.0625 12.5573 19.0625 12.375V10.3125C19.0625 10.1302 19.1349 9.9553 19.2639 9.82636C19.3928 9.69743 19.5677 9.625 19.75 9.625C19.9323 9.625 20.1072 9.69743 20.2361 9.82636C20.3651 9.9553 20.4375 10.1302 20.4375 10.3125V11.6875H21.8125C21.9948 11.6875 22.1697 11.7599 22.2986 11.8889C22.4276 12.0178 22.5 12.1927 22.5 12.375C22.5 12.5573 22.4276 12.7322 22.2986 12.8611C22.1697 12.9901 21.9948 13.0625 21.8125 13.0625Z" fill="#00B000"/>
<path d="M19.0625 15.8125H16.3125C16.1302 15.8125 15.9553 15.7401 15.8264 15.6111C15.6974 15.4822 15.625 15.3073 15.625 15.125C15.625 14.9427 15.6974 14.7678 15.8264 14.6389C15.9553 14.5099 16.1302 14.4375 16.3125 14.4375H19.0625C19.2448 14.4375 19.4197 14.5099 19.5486 14.6389C19.6776 14.7678 19.75 14.9427 19.75 15.125C19.75 15.3073 19.6776 15.4822 19.5486 15.6111C19.4197 15.7401 19.2448 15.8125 19.0625 15.8125Z" fill="#00B000"/>
<path d="M19.0625 18.5625H16.3125C16.1302 18.5625 15.9553 18.4901 15.8264 18.3611C15.6974 18.2322 15.625 18.0573 15.625 17.875C15.625 17.6927 15.6974 17.5178 15.8264 17.3889C15.9553 17.2599 16.1302 17.1875 16.3125 17.1875H19.0625C19.2448 17.1875 19.4197 17.2599 19.5486 17.3889C19.6776 17.5178 19.75 17.6927 19.75 17.875C19.75 18.0573 19.6776 18.2322 19.5486 18.3611C19.4197 18.4901 19.2448 18.5625 19.0625 18.5625Z" fill="#00B000"/>
<path d="M17.6875 7.5625C17.5052 7.5625 17.3303 7.49007 17.2014 7.36114C17.0724 7.2322 17 7.05734 17 6.875V4.125C16.9998 3.94271 16.9274 3.76794 16.7985 3.63905C16.6696 3.51015 16.4948 3.43766 16.3125 3.4375H12.1875C12.0052 3.4375 11.8303 3.36507 11.7014 3.23614C11.5724 3.1072 11.5 2.93234 11.5 2.75C11.5 2.56766 11.5724 2.3928 11.7014 2.26386C11.8303 2.13493 12.0052 2.0625 12.1875 2.0625H16.3125C16.8593 2.0631 17.3836 2.28059 17.7702 2.66726C18.1569 3.05392 18.3744 3.57818 18.375 4.125V6.875C18.375 7.05734 18.3026 7.2322 18.1736 7.36114C18.0447 7.49007 17.8698 7.5625 17.6875 7.5625Z" fill="#00B000"/>
<path d="M17.6874 8.25C17.5971 8.2501 17.5076 8.23236 17.4242 8.19779C17.3408 8.16322 17.265 8.11251 17.2013 8.04856L15.8263 6.67356C15.7011 6.5439 15.6318 6.37023 15.6333 6.18997C15.6349 6.00971 15.7072 5.83728 15.8347 5.70981C15.9621 5.58234 16.1346 5.51004 16.3148 5.50847C16.4951 5.50691 16.6688 5.5762 16.7984 5.70144L17.6874 6.5903L18.5763 5.70144C18.706 5.5762 18.8796 5.50691 19.0599 5.50847C19.2401 5.51004 19.4126 5.58234 19.54 5.70981C19.6675 5.83728 19.7398 6.00971 19.7414 6.18997C19.7429 6.37023 19.6736 6.5439 19.5484 6.67356L18.1734 8.04856C18.1097 8.11251 18.0339 8.16322 17.9505 8.19779C17.8671 8.23236 17.7776 8.2501 17.6874 8.25Z" fill="#00B000"/>
<path d="M10.8125 19.9375H6.6875C6.14068 19.9369 5.61642 19.7194 5.22976 19.3327C4.84309 18.9461 4.6256 18.4218 4.625 17.875V15.125C4.625 14.9427 4.69743 14.7678 4.82636 14.6389C4.9553 14.5099 5.13016 14.4375 5.3125 14.4375C5.49484 14.4375 5.6697 14.5099 5.79864 14.6389C5.92757 14.7678 6 14.9427 6 15.125V17.875C6.00016 18.0573 6.07265 18.2321 6.20155 18.361C6.33044 18.4899 6.50521 18.5623 6.6875 18.5625H10.8125C10.9948 18.5625 11.1697 18.6349 11.2986 18.7639C11.4276 18.8928 11.5 19.0677 11.5 19.25C11.5 19.4323 11.4276 19.6072 11.2986 19.7361C11.1697 19.8651 10.9948 19.9375 10.8125 19.9375Z" fill="#00B000"/>
<path d="M6.68735 16.5C6.59706 16.5001 6.50763 16.4824 6.42422 16.4478C6.3408 16.4132 6.26504 16.3625 6.20129 16.2986L5.31235 15.4097L4.42342 16.2986C4.29375 16.4238 4.12009 16.4931 3.93983 16.4915C3.75957 16.49 3.58713 16.4177 3.45967 16.2902C3.3322 16.1627 3.25989 15.9903 3.25833 15.81C3.25676 15.6298 3.32606 15.4561 3.45129 15.3264L4.82629 13.9514C4.8901 13.8876 4.96587 13.8369 5.04927 13.8023C5.13267 13.7678 5.22207 13.75 5.31235 13.75C5.40263 13.75 5.49203 13.7678 5.57543 13.8023C5.65883 13.8369 5.73461 13.8876 5.79842 13.9514L7.17342 15.3264C7.26953 15.4226 7.33499 15.5451 7.3615 15.6784C7.38802 15.8118 7.3744 15.95 7.32238 16.0756C7.27036 16.2012 7.18226 16.3085 7.06923 16.3841C6.9562 16.4596 6.82331 16.5 6.68735 16.5Z" fill="#00B000"/>
</g>
<defs>
<clipPath id="clip0_832_2195">
<rect width="22" height="22" fill="white" transform="translate(0.5)"/>
</clipPath>
</defs>
</svg>
