<svg width="19" height="18" viewBox="0 0 19 18" fill="none" xmlns="http://www.w3.org/2000/svg">
<path d="M11.1771 17.9844H7.83725C7.83335 17.9844 7.82944 17.9844 7.82554 17.9844C7.32554 17.9766 6.90757 17.6289 6.806 17.1406C6.8021 17.1289 6.8021 17.1133 6.79819 17.1016L6.53647 15.2344H6.53257C6.21225 15.0781 5.89975 14.8984 5.60679 14.6914L3.85288 15.3984C3.84897 15.3984 3.84507 15.4023 3.84116 15.4023C3.3646 15.582 2.82944 15.3984 2.56772 14.957C2.56772 14.9531 2.56382 14.9531 2.56382 14.9492L0.891942 12.0586C0.63413 11.6172 0.735692 11.0547 1.13022 10.7266C1.13413 10.7227 1.13804 10.7188 1.14194 10.7148L2.63413 9.54297L2.63022 9.53906C2.6146 9.34375 2.60679 9.16797 2.60679 8.99609C2.60679 8.82031 2.6146 8.64453 2.63022 8.45703L1.14585 7.29297C1.13804 7.28906 1.13413 7.28516 1.13022 7.27734C0.743505 6.94922 0.645849 6.39062 0.899755 5.95312L2.57163 3.0625C2.57163 3.05859 2.57554 3.05859 2.57554 3.05469C2.83725 2.61719 3.37241 2.42969 3.84897 2.60938C3.85288 2.60938 3.85679 2.61328 3.86069 2.61328L5.6146 3.32031C5.91147 3.11719 6.22007 2.9375 6.54038 2.78125L6.8021 0.910156C6.8021 0.902344 6.806 0.894531 6.806 0.890625C6.88804 0.394531 7.31772 0.0273438 7.82163 0.015625C7.82554 0.015625 7.82944 0.015625 7.83335 0.015625H11.1732C11.1771 0.015625 11.181 0.015625 11.1849 0.015625C11.6849 0.0234375 12.1029 0.371094 12.2044 0.859375C12.2083 0.871094 12.2083 0.886719 12.2123 0.898437L12.474 2.76562H12.4779C12.7982 2.92188 13.1107 3.10156 13.4037 3.30859L15.1576 2.60156C15.1615 2.60156 15.1654 2.59766 15.1693 2.59766C15.6458 2.41406 16.181 2.60156 16.4427 3.04297C16.4427 3.04688 16.4466 3.04687 16.4466 3.05078L18.1185 5.94141C18.3763 6.38281 18.2748 6.94531 17.8802 7.27344C17.8763 7.27734 17.8724 7.28125 17.8685 7.28516L16.3763 8.45703C16.3763 8.46094 16.3763 8.46484 16.3763 8.46484C16.3919 8.66406 16.3998 8.83984 16.3998 9V9.00391C16.3998 9.17969 16.3919 9.35938 16.3763 9.53516L17.8685 10.7031C17.8724 10.707 17.8763 10.7109 17.8802 10.7148C18.2748 11.043 18.3763 11.6016 18.1185 12.0469L16.4466 14.9375C16.4466 14.9414 16.4427 14.9414 16.4427 14.9453C16.181 15.3828 15.6458 15.5703 15.1693 15.3906C15.1654 15.3906 15.1615 15.3867 15.1576 15.3867L13.4037 14.6797C13.1068 14.8828 12.7982 15.0625 12.4779 15.2188L12.2162 17.0898C12.2162 17.0977 12.2123 17.1055 12.2123 17.1094C12.1263 17.6055 11.6966 17.9727 11.1927 17.9844C11.1849 17.9844 11.181 17.9844 11.1771 17.9844ZM8.00913 16.7344H11.0013L11.2396 15.043C11.2982 14.6328 11.556 14.2773 11.931 14.0938C12.1966 13.9648 12.4505 13.8164 12.6927 13.6523C13.0365 13.4141 13.4779 13.3633 13.8724 13.5195L15.4583 14.1562L16.9505 11.5742L15.3255 10.3047C15.1498 10.168 15.0599 9.94531 15.0912 9.72656C15.1263 9.48828 15.1419 9.24219 15.1458 9C15.1458 8.87109 15.138 8.73047 15.1263 8.56641C15.0873 8.14453 15.2669 7.73437 15.599 7.47266L16.9466 6.41406L15.4544 3.83203L13.8685 4.46875C13.4779 4.625 13.0365 4.57812 12.6888 4.33594C12.4505 4.16797 12.1966 4.01953 11.9349 3.89453C11.5599 3.71484 11.2982 3.35938 11.2357 2.94531L11.0013 1.26562H8.00913L7.77085 2.95703C7.71225 3.36719 7.45444 3.72266 7.07944 3.90625C6.81382 4.03516 6.55991 4.18359 6.31772 4.34766C5.97397 4.58594 5.53257 4.63672 5.13804 4.48047L3.55991 3.84375L2.06772 6.42578L3.40757 7.48047C3.7396 7.74219 3.91538 8.14844 3.88022 8.57031C3.8646 8.72266 3.86069 8.86328 3.86069 9C3.86069 9.13281 3.8685 9.27344 3.88022 9.43359C3.91929 9.85547 3.7435 10.2656 3.41147 10.5273L2.06382 11.5859L3.556 14.168L5.13804 13.5312C5.52866 13.375 5.97007 13.4219 6.31772 13.6641C6.556 13.832 6.80991 13.9805 7.07163 14.1055C7.44663 14.2852 7.70835 14.6406 7.77085 15.0547L8.00913 16.7344ZM9.50913 12.125C9.40757 12.125 9.3021 12.1211 9.20054 12.1094C8.3685 12.0273 7.62241 11.625 7.09116 10.9805C6.55991 10.3359 6.31382 9.52344 6.39585 8.69141C6.56382 6.97656 8.09897 5.71875 9.81382 5.88672C11.2904 6.03516 12.4662 7.21484 12.6146 8.6875C12.6341 8.89062 12.6341 9.09766 12.6146 9.30469C12.4544 10.918 11.0951 12.125 9.50913 12.125ZM9.50132 7.125C9.06772 7.125 8.65366 7.27344 8.31382 7.55078C7.9271 7.86719 7.68491 8.31641 7.63804 8.81641C7.58725 9.31641 7.73569 9.80078 8.056 10.1914C8.37241 10.5781 8.82163 10.8203 9.32163 10.8672C10.349 10.9687 11.2708 10.2148 11.3724 9.18359C11.3841 9.0625 11.3841 8.9375 11.3724 8.81641C11.2826 7.92969 10.5755 7.22266 9.68882 7.13281C9.62632 7.12891 9.56382 7.125 9.50132 7.125Z" fill="#21272A"/>
</svg>
