<svg width="14" height="14" viewBox="0 0 14 14" fill="none" xmlns="http://www.w3.org/2000/svg">
<path d="M7 1.75C4.10156 1.75 1.75 4.10156 1.75 7C1.75 9.89844 4.10156 12.25 7 12.25C9.89844 12.25 12.25 9.89844 12.25 7C12.25 4.10156 9.89844 1.75 7 1.75ZM6.83594 10.0625C6.72778 10.0625 6.62204 10.0304 6.53211 9.97034C6.44218 9.91024 6.37208 9.82483 6.33069 9.7249C6.2893 9.62498 6.27847 9.51502 6.29957 9.40894C6.32067 9.30285 6.37276 9.20541 6.44924 9.12893C6.52572 9.05244 6.62316 9.00036 6.72925 8.97926C6.83533 8.95816 6.94529 8.96899 7.04522 9.01038C7.14515 9.05177 7.23056 9.12186 7.29065 9.2118C7.35074 9.30173 7.38281 9.40746 7.38281 9.51562C7.38281 9.66067 7.3252 9.79977 7.22264 9.90232C7.12008 10.0049 6.98098 10.0625 6.83594 10.0625ZM7.75031 7.27344C7.30707 7.57094 7.24609 7.84355 7.24609 8.09375C7.24609 8.19528 7.20576 8.29265 7.13397 8.36444C7.06218 8.43623 6.96481 8.47656 6.86328 8.47656C6.76175 8.47656 6.66438 8.43623 6.59259 8.36444C6.5208 8.29265 6.48047 8.19528 6.48047 8.09375C6.48047 7.49465 6.75609 7.01832 7.3232 6.63742C7.85039 6.28359 8.14844 6.05938 8.14844 5.56637C8.14844 5.23113 7.95703 4.97656 7.56082 4.78816C7.46758 4.74387 7.26004 4.70066 7.00465 4.70367C6.68418 4.70777 6.43535 4.78434 6.24367 4.93855C5.88219 5.22949 5.85156 5.54613 5.85156 5.55078C5.84914 5.60105 5.83684 5.65035 5.81536 5.69587C5.79388 5.74139 5.76365 5.78223 5.72639 5.81606C5.68913 5.8499 5.64557 5.87606 5.59819 5.89306C5.55082 5.91006 5.50056 5.91756 5.45029 5.91514C5.40002 5.91271 5.35072 5.90041 5.3052 5.87893C5.25968 5.85746 5.21884 5.82722 5.18501 5.78996C5.15118 5.7527 5.12501 5.70914 5.10801 5.66177C5.09102 5.6144 5.08351 5.56414 5.08594 5.51387C5.08895 5.44742 5.13516 4.84887 5.76324 4.34355C6.08891 4.0816 6.50316 3.94543 6.99371 3.93941C7.34098 3.93531 7.66719 3.9941 7.8884 4.09855C8.55039 4.41164 8.91406 4.93363 8.91406 5.56637C8.91406 6.49141 8.29582 6.90676 7.75031 7.27344Z" fill="black"/>
</svg>
