<svg width="41" height="40" viewBox="0 0 41 40" fill="none" xmlns="http://www.w3.org/2000/svg">
<path d="M0.5 14C0.5 6.26801 6.76801 0 14.5 0H26.5C34.232 0 40.5 6.26801 40.5 14V26C40.5 33.732 34.232 40 26.5 40H14.5C6.76801 40 0.5 33.732 0.5 26V14Z" fill="#DADADA"/>
<path d="M21.8259 20L25.5369 16.2891C25.713 16.1133 25.8121 15.8747 25.8123 15.6258C25.8125 15.377 25.7139 15.1382 25.5381 14.9621C25.3622 14.786 25.1237 14.6869 24.8748 14.6867C24.626 14.6865 24.3872 14.7851 24.2111 14.9609L20.5002 18.6719L16.7892 14.9609C16.6131 14.7848 16.3742 14.6859 16.1252 14.6859C15.8761 14.6859 15.6372 14.7848 15.4611 14.9609C15.285 15.1371 15.186 15.3759 15.186 15.625C15.186 15.8741 15.285 16.1129 15.4611 16.2891L19.172 20L15.4611 23.7109C15.285 23.8871 15.186 24.1259 15.186 24.375C15.186 24.6241 15.285 24.8629 15.4611 25.0391C15.6372 25.2152 15.8761 25.3141 16.1252 25.3141C16.3742 25.3141 16.6131 25.2152 16.7892 25.0391L20.5002 21.3281L24.2111 25.0391C24.3872 25.2152 24.6261 25.3141 24.8752 25.3141C25.1242 25.3141 25.3631 25.2152 25.5392 25.0391C25.7153 24.8629 25.8143 24.6241 25.8143 24.375C25.8143 24.1259 25.7153 23.8871 25.5392 23.7109L21.8259 20Z" fill="black"/>
</svg>
