<svg width="18" height="18" viewBox="0 0 18 18" fill="none" xmlns="http://www.w3.org/2000/svg">
<path fill-rule="evenodd" clip-rule="evenodd" d="M0.5625 5.0625C0.5625 4.75184 0.81434 4.5 1.125 4.5H16.875C17.1857 4.5 17.4375 4.75184 17.4375 5.0625C17.4375 5.37316 17.1857 5.625 16.875 5.625H1.125C0.81434 5.625 0.5625 5.37316 0.5625 5.0625Z" fill="#6A6A6A"/>
<path fill-rule="evenodd" clip-rule="evenodd" d="M3.375 9C3.375 8.68934 3.62684 8.4375 3.9375 8.4375H14.0625C14.3732 8.4375 14.625 8.68934 14.625 9C14.625 9.31066 14.3732 9.5625 14.0625 9.5625H3.9375C3.62684 9.5625 3.375 9.31066 3.375 9Z" fill="#6A6A6A"/>
<path fill-rule="evenodd" clip-rule="evenodd" d="M6.75 12.9375C6.75 12.6268 7.00184 12.375 7.3125 12.375H10.6875C10.9982 12.375 11.25 12.6268 11.25 12.9375C11.25 13.2482 10.9982 13.5 10.6875 13.5H7.3125C7.00184 13.5 6.75 13.2482 6.75 12.9375Z" fill="#6A6A6A"/>
</svg>
