<svg width="50" height="51" viewBox="0 0 50 51" fill="none" xmlns="http://www.w3.org/2000/svg">
<path d="M25 0.5C11.1929 0.5 0 11.6929 0 25.5C0 39.3091 11.1929 50.5 25 50.5C38.8071 50.5 50 39.3091 50 25.5C50 11.6929 38.8061 0.5 25 0.5ZM26.4335 10.6381C27.5675 9.30711 29.4853 8.3203 31.067 8.25634C31.269 10.1 30.5259 11.9487 29.4294 13.2787C28.3289 14.6076 26.5289 15.6421 24.7614 15.5051C24.5239 13.7 25.4142 11.8157 26.4335 10.6381ZM35.4355 35.8147C34.1228 37.7325 32.7624 39.6431 30.6193 39.6817C28.5117 39.7213 27.8335 38.433 25.4264 38.433C23.0173 38.433 22.264 39.6442 20.269 39.7223C18.201 39.7995 16.6254 37.6543 15.3025 35.7426C12.597 31.836 10.533 24.702 13.3086 19.8858C14.6832 17.4919 17.1462 15.9812 19.8173 15.9396C21.8518 15.902 23.7695 17.3102 25.0102 17.3102C26.2538 17.3102 28.5848 15.6188 31.0365 15.8685C32.0619 15.9102 34.9411 16.2807 36.7909 18.9863C36.6426 19.0797 33.3523 20.9934 33.3919 24.9782C33.4355 29.7386 37.5675 31.3193 37.6152 31.3437C37.5766 31.4513 36.9523 33.5985 35.4355 35.8147Z" fill="black"/>
</svg>
