<svg width="20" height="19" viewBox="0 0 20 19" fill="none" xmlns="http://www.w3.org/2000/svg">
<path fill-rule="evenodd" clip-rule="evenodd" d="M14.5204 5.25967L6.97807 12.3402C6.6314 12.6652 6.06695 12.6652 5.72027 12.3402C5.3736 12.0151 5.3736 11.4858 5.72027 11.1608L13.2626 4.08029C13.6093 3.75523 14.1737 3.75523 14.5204 4.08029C14.6937 4.24282 14.7826 4.45536 14.7826 4.6679C14.7826 4.8846 14.6937 5.09714 14.5204 5.25967ZM17.35 4.37648L15.4611 2.60949C14.5944 1.79684 13.1855 1.79684 12.3188 2.60949L4.22089 10.2151C3.96756 10.4484 3.78089 10.7402 3.66977 11.0611L2.04308 15.9203C1.8253 16.5621 2.46976 17.1664 3.15421 16.9663L8.3454 15.4369C8.68319 15.3369 8.9943 15.1618 9.24764 14.9243L17.35 7.3187C18.2167 6.50605 18.2167 5.18914 17.35 4.37648Z" fill="black"/>
</svg>
