<svg width="42" height="42" viewBox="0 0 42 42" fill="none" xmlns="http://www.w3.org/2000/svg">
<circle cx="21" cy="21" r="20" fill="#00B000" stroke="#F8F8F8" stroke-width="1.11404"/>
<path fill-rule="evenodd" clip-rule="evenodd" d="M25.5205 16.2596L17.9782 23.3401C17.6315 23.6651 17.0671 23.6651 16.7204 23.3401C16.3737 23.015 16.3737 22.4857 16.7204 22.1607L24.2627 15.0802C24.6094 14.7551 25.1739 14.7551 25.5205 15.0802C25.6939 15.2427 25.7828 15.4553 25.7828 15.6678C25.7828 15.8845 25.6939 16.0971 25.5205 16.2596ZM28.3501 15.3764L26.4612 13.6094C25.5945 12.7967 24.1856 12.7967 23.3189 13.6094L15.221 21.215C14.9677 21.4484 14.781 21.7401 14.6699 22.061L13.0432 26.9202C12.8254 27.562 13.4699 28.1663 14.1543 27.9662L19.3455 26.4368C19.6833 26.3368 19.9944 26.1617 20.2478 25.9242L28.3501 18.3186C29.2168 17.506 29.2168 16.189 28.3501 15.3764Z" fill="white"/>
</svg>
