<svg width="18" height="18" viewBox="0 0 18 18" fill="none" xmlns="http://www.w3.org/2000/svg">
<path d="M9 0.25C5.79688 1.69766 3.74141 2.37734 0.25 2.75C0.25 5.78086 0.455859 7.95938 1.23789 9.95742C1.87735 11.5867 2.82469 13.0775 4.02813 14.3484C5.96562 16.4055 8.09727 17.4891 9 17.75C9.90273 17.4891 12.0344 16.4055 13.9719 14.3484C15.1753 13.0775 16.1226 11.5867 16.7621 9.95742C17.5441 7.95938 17.75 5.78086 17.75 2.75C14.2586 2.37734 12.2031 1.69766 9 0.25ZM15.3074 9.38789C14.7404 10.831 13.9007 12.1514 12.8344 13.277C11.3438 14.8594 9.80664 15.7309 9 16.0844V1.96094C10.5137 2.625 11.6848 3.06641 12.8254 3.40195C13.9213 3.7225 15.0387 3.96426 16.1691 4.12539C16.102 6.47773 15.8426 8.01953 15.3074 9.38789Z" fill="#21272A"/>
</svg>
