<svg width="24" height="24" viewBox="0 0 24 24" fill="none" xmlns="http://www.w3.org/2000/svg">
<path d="M19.125 15.75H16.125C15.9179 15.75 15.75 15.9179 15.75 16.125V19.125C15.75 19.3321 15.9179 19.5 16.125 19.5H19.125C19.3321 19.5 19.5 19.3321 19.5 19.125V16.125C19.5 15.9179 19.3321 15.75 19.125 15.75Z" fill="black"/>
<path d="M15.375 12.75H13.125C12.9179 12.75 12.75 12.9179 12.75 13.125V15.375C12.75 15.5821 12.9179 15.75 13.125 15.75H15.375C15.5821 15.75 15.75 15.5821 15.75 15.375V13.125C15.75 12.9179 15.5821 12.75 15.375 12.75Z" fill="black"/>
<path d="M22.125 19.5H19.875C19.6679 19.5 19.5 19.6679 19.5 19.875V22.125C19.5 22.3321 19.6679 22.5 19.875 22.5H22.125C22.3321 22.5 22.5 22.3321 22.5 22.125V19.875C22.5 19.6679 22.3321 19.5 22.125 19.5Z" fill="black"/>
<path d="M22.125 12.75H20.625C20.4179 12.75 20.25 12.9179 20.25 13.125V14.625C20.25 14.8321 20.4179 15 20.625 15H22.125C22.3321 15 22.5 14.8321 22.5 14.625V13.125C22.5 12.9179 22.3321 12.75 22.125 12.75Z" fill="black"/>
<path d="M14.625 20.25H13.125C12.9179 20.25 12.75 20.4179 12.75 20.625V22.125C12.75 22.3321 12.9179 22.5 13.125 22.5H14.625C14.8321 22.5 15 22.3321 15 22.125V20.625C15 20.4179 14.8321 20.25 14.625 20.25Z" fill="black"/>
<path d="M19.125 4.5H16.125C15.9179 4.5 15.75 4.66789 15.75 4.875V7.875C15.75 8.08211 15.9179 8.25 16.125 8.25H19.125C19.3321 8.25 19.5 8.08211 19.5 7.875V4.875C19.5 4.66789 19.3321 4.5 19.125 4.5Z" fill="black"/>
<path fill-rule="evenodd" clip-rule="evenodd" d="M12.75 3C12.75 2.17157 13.4216 1.5 14.25 1.5H21C21.8284 1.5 22.5 2.17157 22.5 3V9.75C22.5 10.5784 21.8284 11.25 21 11.25H14.25C13.4216 11.25 12.75 10.5784 12.75 9.75V3ZM21 3H14.25V9.75H21V3Z" fill="black"/>
<path d="M7.875 4.5H4.875C4.66789 4.5 4.5 4.66789 4.5 4.875V7.875C4.5 8.08211 4.66789 8.25 4.875 8.25H7.875C8.08211 8.25 8.25 8.08211 8.25 7.875V4.875C8.25 4.66789 8.08211 4.5 7.875 4.5Z" fill="black"/>
<path fill-rule="evenodd" clip-rule="evenodd" d="M1.5 3C1.5 2.17157 2.17157 1.5 3 1.5H9.75C10.5784 1.5 11.25 2.17157 11.25 3V9.75C11.25 10.5784 10.5784 11.25 9.75 11.25H3C2.17157 11.25 1.5 10.5784 1.5 9.75V3ZM9.75 3H3V9.75H9.75V3Z" fill="black"/>
<path d="M7.875 15.75H4.875C4.66789 15.75 4.5 15.9179 4.5 16.125V19.125C4.5 19.3321 4.66789 19.5 4.875 19.5H7.875C8.08211 19.5 8.25 19.3321 8.25 19.125V16.125C8.25 15.9179 8.08211 15.75 7.875 15.75Z" fill="black"/>
<path fill-rule="evenodd" clip-rule="evenodd" d="M1.5 14.25C1.5 13.4216 2.17157 12.75 3 12.75H9.75C10.5784 12.75 11.25 13.4216 11.25 14.25V21C11.25 21.8284 10.5784 22.5 9.75 22.5H3C2.17157 22.5 1.5 21.8284 1.5 21V14.25ZM9.75 14.25H3V21H9.75V14.25Z" fill="black"/>
</svg>
