<svg width="20" height="20" viewBox="0 0 20 20" fill="none" xmlns="http://www.w3.org/2000/svg">
<path d="M9.90761 10C11.9697 10 13.7916 8.0582 13.9701 5.67109C14.0588 4.47187 13.6826 3.35352 12.9107 2.52266C12.1471 1.70195 11.0795 1.25 9.90761 1.25C8.72636 1.25 7.658 1.69922 6.8998 2.51484C6.133 3.33945 5.75917 4.46016 5.84511 5.67031C6.0205 8.05781 7.84199 10 9.90761 10Z" fill="#00B000"/>
<path d="M17.8923 17.1781C17.5626 15.3492 16.5333 13.8129 14.9161 12.7348C13.4798 11.7773 11.6599 11.25 9.79153 11.25C7.92317 11.25 6.10324 11.7773 4.66692 12.7344C3.04973 13.8125 2.02043 15.3488 1.69074 17.1777C1.61535 17.5969 1.7177 18.0113 1.9716 18.3148C2.08677 18.4532 2.23137 18.564 2.39485 18.6393C2.55833 18.7146 2.73656 18.7524 2.91653 18.75H16.6665C16.8466 18.7526 17.025 18.7149 17.1886 18.6396C17.3522 18.5644 17.4969 18.4536 17.6122 18.3152C17.8654 18.0117 17.9677 17.5973 17.8923 17.1781Z" fill="#00B000"/>
</svg>
