<svg width="18" height="18" viewBox="0 0 18 18" fill="none" xmlns="http://www.w3.org/2000/svg">
<path d="M8.99996 0.666504C13.6025 0.666504 17.3333 4.39734 17.3333 8.99984C17.335 11.1877 16.4762 13.2885 14.9424 14.8487C13.4085 16.4089 11.3226 17.3032 9.13498 17.3387C6.94737 17.3741 4.83357 16.5478 3.24996 15.0382C1.66634 13.5285 0.73995 11.4566 0.670793 9.26984L0.666626 8.99984L0.669959 8.7665C0.793293 4.27234 4.47496 0.666504 8.99996 0.666504ZM8.99996 8.1665H8.16663L8.06913 8.17234C7.86658 8.19643 7.67991 8.29397 7.54447 8.44647C7.40903 8.59898 7.33422 8.79587 7.33422 8.99984C7.33422 9.20381 7.40903 9.40069 7.54447 9.5532C7.67991 9.70571 7.86658 9.80325 8.06913 9.82734L8.16663 9.83317V12.3332L8.17246 12.4307C8.1944 12.6167 8.27836 12.7899 8.4108 12.9223C8.54325 13.0548 8.71644 13.1387 8.90246 13.1607L8.99996 13.1665H9.83329L9.93079 13.1607C10.1168 13.1387 10.29 13.0548 10.4224 12.9223C10.5549 12.7899 10.6389 12.6167 10.6608 12.4307L10.6666 12.3332L10.6608 12.2357C10.6409 12.0657 10.5691 11.9059 10.4552 11.7781C10.3412 11.6503 10.1908 11.5607 10.0241 11.5215L9.93079 11.5048L9.83329 11.4998V8.99984L9.82746 8.90234C9.80552 8.71632 9.72156 8.54312 9.58912 8.41068C9.45667 8.27824 9.28347 8.19427 9.09746 8.17234L8.99996 8.1665ZM9.00829 5.6665L8.90246 5.67234C8.69992 5.69643 8.51325 5.79397 8.3778 5.94647C8.24236 6.09898 8.16755 6.29587 8.16755 6.49984C8.16755 6.70381 8.24236 6.90069 8.3778 7.0532C8.51325 7.20571 8.69992 7.30325 8.90246 7.32734L8.99996 7.33317L9.10579 7.32734C9.30833 7.30325 9.49501 7.20571 9.63045 7.0532C9.76589 6.90069 9.8407 6.70381 9.8407 6.49984C9.8407 6.29587 9.76589 6.09898 9.63045 5.94647C9.49501 5.79397 9.30833 5.69643 9.10579 5.67234L9.00829 5.6665Z" fill="black"/>
</svg>
