<svg width="78" height="66" viewBox="0 0 78 66" fill="none" xmlns="http://www.w3.org/2000/svg">
<path fill-rule="evenodd" clip-rule="evenodd" d="M31.8637 3.65076C30.1175 6.06627 4.37738 48.9732 2.16638 52.038C0.230368 54.7176 -0.039146 58.2583 1.46511 61.202C2.96936 64.1485 5.99714 66 9.30266 66H68.6973C72.0029 66 75.0306 64.1485 76.5349 61.202C78.0392 58.2583 77.7696 54.7176 75.8336 52.038C75.2011 51.1604 46.5185 4.17898 46.1363 3.65076C44.4808 1.35906 41.827 0 39 0C36.173 0 33.5192 1.35906 31.8637 3.65076ZM39 49.5207C40.518 49.5207 41.75 50.7532 41.75 52.2718C41.75 53.7904 40.518 55.0229 39 55.0229C37.482 55.0229 36.25 53.7904 36.25 52.2718C36.25 50.7532 37.482 49.5207 39 49.5207ZM36.25 16.5069V44.0184C36.25 45.537 37.482 46.7695 39 46.7695C40.518 46.7695 41.75 45.537 41.75 44.0184V16.5069C41.75 14.9883 40.518 13.7557 39 13.7557C37.482 13.7557 36.25 14.9883 36.25 16.5069Z" fill="#D50000"/>
</svg>
