<svg width="76" height="77" viewBox="0 0 76 77" fill="none" xmlns="http://www.w3.org/2000/svg">
<path d="M21.3749 38.5C21.3919 44.7299 19.9523 50.8774 17.1711 56.452C17.0384 56.7411 16.8489 57.0005 16.614 57.2149C16.3791 57.4293 16.1035 57.5943 15.8036 57.7002C15.5037 57.8061 15.1856 57.8507 14.8681 57.8313C14.5507 57.8119 14.2403 57.7289 13.9555 57.5873C13.6707 57.4457 13.4173 57.2484 13.2102 57.007C13.0032 56.7656 12.8467 56.485 12.7501 56.182C12.6535 55.879 12.6188 55.5596 12.6479 55.2429C12.6771 54.9262 12.7696 54.6186 12.9199 54.3383C15.3721 49.4197 16.6408 43.996 16.6249 38.5C16.6193 35.2951 17.3372 32.1302 18.7251 29.2414C20.113 26.3525 22.135 23.8142 24.6405 21.8156C24.884 21.6207 25.1635 21.4756 25.463 21.3887C25.7625 21.3018 26.0762 21.2747 26.3862 21.309C26.6962 21.3434 26.9964 21.4384 27.2697 21.5887C27.543 21.7391 27.7839 21.9418 27.9789 22.1852C28.1738 22.4287 28.3189 22.7082 28.4058 23.0077C28.4927 23.3072 28.5198 23.621 28.4855 23.931C28.4511 24.241 28.3561 24.5412 28.2058 24.8144C28.0554 25.0877 27.8527 25.3287 27.6093 25.5236C25.6601 27.0776 24.0871 29.0517 23.0076 31.2986C21.9281 33.5455 21.3699 36.0072 21.3749 38.5ZM37.9999 36.125C37.37 36.125 36.7659 36.3752 36.3205 36.8206C35.8751 37.266 35.6249 37.8701 35.6249 38.5C35.6244 47.753 33.275 56.8544 28.7968 64.9516C28.4913 65.5027 28.4172 66.1527 28.5909 66.7584C28.7646 67.3641 29.1719 67.8761 29.723 68.1816C30.2742 68.4871 30.9241 68.5611 31.5298 68.3874C32.1356 68.2137 32.6475 67.8065 32.953 67.2553C37.8205 58.4527 40.3742 48.5587 40.3749 38.5C40.3749 37.8701 40.1247 37.266 39.6793 36.8206C39.2339 36.3752 38.6298 36.125 37.9999 36.125ZM37.9999 26.625C34.8504 26.625 31.83 27.8761 29.603 30.1031C27.376 32.3301 26.1249 35.3506 26.1249 38.5C26.1249 39.1299 26.3751 39.734 26.8205 40.1794C27.2659 40.6248 27.87 40.875 28.4999 40.875C29.1298 40.875 29.7339 40.6248 30.1793 40.1794C30.6247 39.734 30.8749 39.1299 30.8749 38.5C30.8749 36.6103 31.6255 34.7981 32.9617 33.4619C34.2979 32.1257 36.1102 31.375 37.9999 31.375C39.8895 31.375 41.7018 32.1257 43.038 33.4619C44.3742 34.7981 45.1249 36.6103 45.1249 38.5C45.1495 47.9435 43.0695 57.2737 39.036 65.8125C38.9028 66.0953 38.8267 66.4016 38.812 66.7139C38.7972 67.0262 38.8441 67.3383 38.9499 67.6324C39.0558 67.9266 39.2185 68.197 39.4289 68.4282C39.6393 68.6595 39.8931 68.847 40.176 68.9802C40.4588 69.1133 40.7651 69.1894 41.0774 69.2042C41.3896 69.2189 41.7018 69.1721 41.9959 69.0662C42.2901 68.9603 42.5605 68.7976 42.7917 68.5872C43.0229 68.3769 43.2105 68.123 43.3436 67.8402C47.6731 58.6667 49.9042 48.6438 49.8749 38.5C49.8749 35.3506 48.6238 32.3301 46.3968 30.1031C44.1698 27.8761 41.1493 26.625 37.9999 26.625ZM37.9999 7.625C29.814 7.63364 21.9658 10.8893 16.1775 16.6776C10.3892 22.4659 7.13352 30.3141 7.12488 38.5C7.12929 41.4658 6.62728 44.4105 5.6405 47.2073C5.43067 47.8014 5.46543 48.4545 5.73712 49.0229C6.00881 49.5914 6.49519 50.0286 7.08925 50.2384C7.68332 50.4483 8.33641 50.4135 8.90485 50.1418C9.47329 49.8701 9.91052 49.3838 10.1203 48.7897C11.2855 45.4844 11.8788 42.0047 11.8749 38.5C11.8749 31.5712 14.6273 24.9262 19.5267 20.0268C24.4261 15.1274 31.0711 12.375 37.9999 12.375C44.9287 12.375 51.5737 15.1274 56.473 20.0268C61.3724 24.9262 64.1249 31.5712 64.1249 38.5C64.1261 43.9264 63.6001 49.3401 62.5544 54.6648C62.4939 54.9709 62.4943 55.2859 62.5556 55.5917C62.6168 55.8976 62.7378 56.1885 62.9114 56.4476C63.0851 56.7068 63.3082 56.9292 63.5678 57.1021C63.8275 57.275 64.1187 57.3951 64.4247 57.4555C64.5764 57.4848 64.7304 57.4998 64.8849 57.5C65.4345 57.4994 65.9669 57.3083 66.3913 56.9591C66.8157 56.6099 67.1059 56.1243 67.2124 55.5852C68.3184 49.9574 68.8751 44.2354 68.8749 38.5C68.8655 30.3143 65.6095 22.4666 59.8214 16.6785C54.0332 10.8903 46.1855 7.63443 37.9999 7.625ZM28.0249 45.6755C27.4089 45.5529 26.7695 45.6794 26.2465 46.0271C25.7235 46.3748 25.3596 46.9155 25.2343 47.5309C24.2706 52.2739 22.5452 56.8296 20.125 61.0209C19.8101 61.5666 19.7248 62.215 19.8879 62.8235C20.0511 63.432 20.4492 63.9508 20.9949 64.2658C21.5405 64.5807 22.1889 64.666 22.7975 64.5029C23.406 64.3398 23.9248 63.9416 24.2397 63.3959C26.9142 58.761 28.8192 53.7229 29.8804 48.478C29.9428 48.1721 29.9442 47.8569 29.8848 47.5505C29.8253 47.2441 29.7059 46.9524 29.5336 46.6921C29.3613 46.4318 29.1393 46.208 28.8804 46.0336C28.6216 45.8591 28.3308 45.7375 28.0249 45.6755ZM37.9999 17.125C37.1067 17.1252 36.2143 17.1807 35.328 17.2913C34.7147 17.3833 34.1618 17.7116 33.7873 18.206C33.4129 18.7004 33.2467 19.3216 33.3242 19.9369C33.4018 20.5522 33.7169 21.1127 34.2023 21.4988C34.6877 21.8848 35.3048 22.0656 35.9218 22.0027C38.2615 21.7117 40.6363 21.9211 42.8891 22.6168C45.1418 23.3126 47.2211 24.4789 48.9893 26.0385C50.7575 27.5982 52.1742 29.5156 53.1458 31.6639C54.1173 33.8121 54.6215 36.1423 54.6249 38.5C54.6242 41.5765 54.4338 44.65 54.0549 47.7031C54.0132 48.0136 54.0334 48.3293 54.1143 48.6319C54.1951 48.9346 54.335 49.2183 54.526 49.4666C54.7169 49.715 54.9551 49.9231 55.2269 50.079C55.4986 50.2349 55.7985 50.3355 56.1093 50.375C56.2078 50.3868 56.3069 50.3928 56.4061 50.3928C56.9837 50.3916 57.5411 50.1799 57.9738 49.7974C58.4066 49.4149 58.6852 48.8877 58.7574 48.3147C59.1579 45.0645 59.3562 41.7926 59.3511 38.5178C59.3496 32.8518 57.1009 27.4176 53.0983 23.4072C49.0957 19.3968 43.6659 17.1376 37.9999 17.125ZM55.1978 55.1992C54.8957 55.1211 54.5811 55.1033 54.2721 55.1468C53.963 55.1903 53.6656 55.2943 53.3968 55.4528C53.128 55.6114 52.893 55.8213 52.7054 56.0707C52.5178 56.3201 52.3811 56.604 52.3033 56.9062C51.8699 58.5955 51.3682 60.2906 50.8189 61.9531C50.618 62.5488 50.6614 63.1998 50.9396 63.7636C51.2178 64.3273 51.7083 64.7577 52.3033 64.9605C52.5471 65.0434 52.8029 65.0855 53.0603 65.0852C53.558 65.0848 54.0429 64.9281 54.4467 64.6373C54.8504 64.3464 55.1527 63.9361 55.3107 63.4642C55.9044 61.7067 56.4358 59.9017 56.8989 58.1056C56.9785 57.8035 56.9978 57.4886 56.9555 57.179C56.9131 56.8694 56.8102 56.5712 56.6524 56.3015C56.4947 56.0318 56.2852 55.7958 56.0362 55.6072C55.7871 55.4186 55.5032 55.2809 55.2008 55.2022L55.1978 55.1992Z" fill="#454545"/>
</svg>
