<svg width="21" height="20" viewBox="0 0 21 20" fill="none" xmlns="http://www.w3.org/2000/svg">
<path fill-rule="evenodd" clip-rule="evenodd" d="M8.18628 3.14668C8.46582 2.20785 9.28566 1.25 10.5 1.25C11.7147 1.25 12.5337 2.20789 12.8154 3.14495C12.8168 3.1467 12.8187 3.1489 12.8211 3.15143C12.8269 3.15746 12.8334 3.16299 12.8396 3.16729C12.8443 3.17056 12.8472 3.17196 12.8475 3.17213C13.5544 3.46318 14.3864 3.92809 15.0372 4.77928C15.6932 5.63732 16.1199 6.82844 16.1199 8.49023C16.1199 10.1471 16.2947 11.0557 16.5522 11.6794C16.7779 12.2263 17.0747 12.5858 17.497 13.0974C17.5587 13.1721 17.6231 13.25 17.6903 13.3323L17.6904 13.3325C18.4688 14.2859 17.7338 15.625 16.5348 15.625H4.46917C3.27236 15.625 2.52497 14.2927 3.30978 13.3323C3.37704 13.25 3.44145 13.172 3.50318 13.0972C3.92545 12.5857 4.22229 12.2262 4.44819 11.6793C4.70585 11.0555 4.88108 10.1469 4.88206 8.49023M8.18628 3.14668C8.1852 3.14796 8.18385 3.14947 8.1822 3.15118C8.17688 3.1567 8.17059 3.16202 8.16431 3.16634C8.15849 3.17035 8.15499 3.17192 8.15499 3.17193L8.15462 3.17208C7.44742 3.46331 6.61508 3.92734 5.96426 4.77833C5.30831 5.63603 4.88212 6.82698 4.88206 8.48987M10.5 2.5C10.0188 2.5 9.55928 2.90126 9.38144 3.51312L9.38098 3.51467C9.26631 3.9054 8.9488 4.19702 8.63059 4.32792C8.63054 4.32794 8.6305 4.32796 8.63045 4.32797C8.0334 4.57386 7.42302 4.92857 6.95717 5.53769C6.49648 6.14008 6.13206 7.05058 6.13206 8.49023V8.4906C6.13106 10.2185 5.95121 11.3147 5.60352 12.1565C5.30103 12.8888 4.87878 13.3977 4.45983 13.9026C4.39895 13.976 4.33813 14.0493 4.27777 14.1232L4.27773 14.1232C4.25285 14.1537 4.24589 14.1786 4.24419 14.1974C4.24226 14.2187 4.24627 14.2442 4.25965 14.2704C4.28288 14.3159 4.34071 14.375 4.46917 14.375H16.5348C16.6586 14.375 16.7155 14.3179 16.7392 14.2711C16.7646 14.221 16.7614 14.1712 16.7223 14.1232C16.662 14.0493 16.6012 13.9761 16.5403 13.9027C16.1213 13.3978 15.699 12.8888 15.3967 12.1563C15.0492 11.3144 14.8699 10.2181 14.8699 8.49023C14.8699 7.05242 14.5053 6.14159 14.0442 5.53849C13.5779 4.92862 12.9673 4.57322 12.3715 4.32794C12.0497 4.19559 11.7355 3.89988 11.6215 3.51567L11.6211 3.51408C11.4409 2.90097 10.9812 2.5 10.5 2.5Z" fill="#21272A"/>
<path fill-rule="evenodd" clip-rule="evenodd" d="M8 14.375C8.34518 14.375 8.625 14.6548 8.625 15V15.625C8.625 16.1223 8.82254 16.5992 9.17417 16.9508C9.52581 17.3025 10.0027 17.5 10.5 17.5C10.9973 17.5 11.4742 17.3025 11.8258 16.9508C12.1775 16.5992 12.375 16.1223 12.375 15.625V15C12.375 14.6548 12.6548 14.375 13 14.375C13.3452 14.375 13.625 14.6548 13.625 15V15.625C13.625 16.4538 13.2958 17.2487 12.7097 17.8347C12.1237 18.4208 11.3288 18.75 10.5 18.75C9.6712 18.75 8.87634 18.4208 8.29029 17.8347C7.70424 17.2487 7.375 16.4538 7.375 15.625V15C7.375 14.6548 7.65482 14.375 8 14.375Z" fill="#21272A"/>
</svg>
