<svg width="101" height="102" viewBox="0 0 101 102" fill="none" xmlns="http://www.w3.org/2000/svg">
<path d="M50.5003 8.9165C27.2583 8.9165 8.41699 27.7578 8.41699 50.9998C8.41699 74.2416 27.2583 93.0832 50.5003 93.0832C73.7421 93.0832 92.5837 74.2416 92.5837 50.9998C92.5837 27.7578 73.7421 8.9165 50.5003 8.9165Z" fill="#FA1228"/>
<path d="M46.292 59.4167C46.292 61.7409 48.1761 63.625 50.5003 63.625C52.8246 63.625 54.7087 61.7409 54.7087 59.4167V29.9583C54.7087 27.6342 52.8246 25.75 50.5003 25.75C48.1761 25.75 46.292 27.6342 46.292 29.9583V59.4167Z" fill="#EBEBED"/>
<path d="M50.5003 67.8335C48.1761 67.8335 46.292 69.7176 46.292 72.0418C46.292 74.3661 48.1761 76.2502 50.5003 76.2502C52.8246 76.2502 54.7087 74.3661 54.7087 72.0418C54.7087 69.7176 52.8246 67.8335 50.5003 67.8335Z" fill="#EBEBED"/>
</svg>
