<svg width="14" height="14" viewBox="0 0 14 14" fill="none" xmlns="http://www.w3.org/2000/svg">
<g clip-path="url(#clip0_338_11093)">
<path d="M7.15208 2.76938C7.11137 2.73043 7.05721 2.7087 7.00087 2.7087C6.94453 2.7087 6.89037 2.73043 6.84966 2.76938L1.81567 7.57832C1.7943 7.59877 1.77729 7.62335 1.76568 7.65056C1.75407 7.67777 1.7481 7.70706 1.74813 7.73664L1.74731 12.25C1.74731 12.4821 1.8395 12.7046 2.0036 12.8687C2.16769 13.0328 2.39025 13.125 2.62231 13.125H5.25005C5.36608 13.125 5.47736 13.0789 5.55941 12.9969C5.64145 12.9148 5.68755 12.8035 5.68755 12.6875V8.96875C5.68755 8.91074 5.7106 8.8551 5.75162 8.81407C5.79264 8.77305 5.84828 8.75 5.9063 8.75H8.0938C8.15181 8.75 8.20745 8.77305 8.24848 8.81407C8.2895 8.8551 8.31255 8.91074 8.31255 8.96875V12.6875C8.31255 12.8035 8.35864 12.9148 8.44069 12.9969C8.52274 13.0789 8.63402 13.125 8.75005 13.125H11.3767C11.6088 13.125 11.8313 13.0328 11.9954 12.8687C12.1595 12.7046 12.2517 12.4821 12.2517 12.25V7.73664C12.2517 7.70706 12.2458 7.67777 12.2341 7.65056C12.2225 7.62335 12.2055 7.59877 12.1841 7.57832L7.15208 2.76938Z" fill="black"/>
<path d="M13.4233 6.67598L11.378 4.71926V1.75C11.378 1.63397 11.3319 1.52269 11.2499 1.44064C11.1678 1.35859 11.0566 1.3125 10.9405 1.3125H9.62802C9.51198 1.3125 9.40071 1.35859 9.31866 1.44064C9.23661 1.52269 9.19052 1.63397 9.19052 1.75V2.625L7.60677 1.1107C7.45856 0.960859 7.23817 0.875 7.00001 0.875C6.76267 0.875 6.54282 0.960859 6.39462 1.11098L0.578604 6.67543C0.408526 6.83949 0.387198 7.10938 0.541963 7.28711C0.580827 7.33197 0.628414 7.36846 0.681826 7.39435C0.735239 7.42023 0.793361 7.43498 0.852654 7.43769C0.911948 7.4404 0.971173 7.43102 1.02673 7.41012C1.08228 7.38921 1.133 7.35722 1.17579 7.31609L6.84962 1.89438C6.89033 1.85543 6.94449 1.8337 7.00083 1.8337C7.05717 1.8337 7.11133 1.85543 7.15204 1.89438L12.8264 7.31609C12.91 7.39625 13.022 7.44 13.1378 7.43774C13.2535 7.43549 13.3637 7.38741 13.4441 7.30406C13.612 7.13016 13.5981 6.84305 13.4233 6.67598Z" fill="black"/>
</g>
<defs>
<clipPath id="clip0_338_11093">
<rect width="14" height="14" fill="white"/>
</clipPath>
</defs>
</svg>
