<svg width="16" height="16" viewBox="0 0 16 16" fill="none" xmlns="http://www.w3.org/2000/svg">
<path d="M15.967 2.83424C15.959 2.7066 15.9083 2.58535 15.8232 2.48991C15.738 2.39447 15.6233 2.33035 15.4974 2.30782C12.408 1.75355 11.1183 1.35284 8.23536 0.0507189C8.1614 0.01729 8.08117 0 8 0C7.91883 0 7.8386 0.01729 7.76464 0.0507189C4.88168 1.35284 3.592 1.75355 0.50261 2.30782C0.376702 2.33035 0.261992 2.39447 0.176841 2.48991C0.0916913 2.58535 0.0410247 2.7066 0.0329515 2.83424C-0.104553 5.0167 0.188671 7.05024 0.90548 8.87842C1.49247 10.3696 2.36118 11.7339 3.46414 12.8966C5.37384 14.9226 7.40141 15.8026 7.78821 15.9583C7.92566 16.0139 8.07934 16.0139 8.21679 15.9583C8.60359 15.8026 10.6312 14.9226 12.5409 12.8966C13.642 11.7334 14.509 10.3692 15.0945 8.87842C15.8113 7.05024 16.1046 5.0167 15.967 2.83424ZM11.2883 5.5167L7.33105 10.088C7.28017 10.147 7.21777 10.1949 7.14769 10.2289C7.07762 10.2628 7.00134 10.2821 6.92354 10.2855H6.89996C6.7504 10.2856 6.60679 10.227 6.49995 10.1223L4.74275 8.40093C4.68914 8.3484 4.6464 8.28583 4.61698 8.21679C4.58755 8.14774 4.57201 8.07358 4.57125 7.99853C4.56971 7.84697 4.62845 7.70099 4.73454 7.59273C4.84063 7.48447 4.98538 7.42278 5.13695 7.42124C5.28853 7.4197 5.43451 7.47843 5.54278 7.58452L6.86425 8.88057L10.4251 4.76885C10.5243 4.65424 10.6649 4.58372 10.8161 4.57281C10.9672 4.56189 11.1166 4.61147 11.2312 4.71064C11.3458 4.80981 11.4163 4.95045 11.4272 5.10161C11.4382 5.25278 11.3886 5.40209 11.2894 5.5167H11.2883Z" fill="black"/>
</svg>
