<svg width="21" height="20" viewBox="0 0 21 20" fill="none" xmlns="http://www.w3.org/2000/svg">
<g clip-path="url(#clip0_2174_25995)">
<path d="M10.25 1.6665C14.8525 1.6665 18.5834 5.39734 18.5834 9.99984C18.5851 12.1877 17.7263 14.2885 16.1924 15.8487C14.6586 17.4089 12.5726 18.3032 10.385 18.3387C8.19743 18.3741 6.08364 17.5478 4.50002 16.0382C2.9164 14.5285 1.99001 12.4566 1.92085 10.2698L1.91669 9.99984L1.92002 9.7665C2.04335 5.27234 5.72502 1.6665 10.25 1.6665ZM10.25 9.1665H9.41669L9.31919 9.17234C9.11665 9.19643 8.92997 9.29397 8.79453 9.44647C8.65909 9.59898 8.58428 9.79587 8.58428 9.99984C8.58428 10.2038 8.65909 10.4007 8.79453 10.5532C8.92997 10.7057 9.11665 10.8032 9.31919 10.8273L9.41669 10.8332V13.3332L9.42252 13.4307C9.44446 13.6167 9.52842 13.7899 9.66086 13.9223C9.79331 14.0548 9.96651 14.1387 10.1525 14.1607L10.25 14.1665H11.0834L11.1809 14.1607C11.3669 14.1387 11.5401 14.0548 11.6725 13.9223C11.805 13.7899 11.8889 13.6167 11.9109 13.4307L11.9167 13.3332L11.9109 13.2357C11.8909 13.0657 11.8191 12.9059 11.7052 12.7781C11.5913 12.6503 11.4408 12.5607 11.2742 12.5215L11.1809 12.5048L11.0834 12.4998V9.99984L11.0775 9.90234C11.0556 9.71632 10.9716 9.54312 10.8392 9.41068C10.7067 9.27824 10.5335 9.19427 10.3475 9.17234L10.25 9.1665ZM10.2584 6.6665L10.1525 6.67234C9.94998 6.69643 9.76331 6.79397 9.62786 6.94647C9.49242 7.09898 9.41761 7.29587 9.41761 7.49984C9.41761 7.70381 9.49242 7.90069 9.62786 8.0532C9.76331 8.20571 9.94998 8.30325 10.1525 8.32734L10.25 8.33317L10.3559 8.32734C10.5584 8.30325 10.7451 8.20571 10.8805 8.0532C11.016 7.90069 11.0908 7.70381 11.0908 7.49984C11.0908 7.29587 11.016 7.09898 10.8805 6.94647C10.7451 6.79397 10.5584 6.69643 10.3559 6.67234L10.2584 6.6665Z" fill="#00B000"/>
</g>
<defs>
<clipPath id="clip0_2174_25995">
<rect width="20" height="20" fill="white" transform="translate(0.25)"/>
</clipPath>
</defs>
</svg>
