<svg width="18" height="18" viewBox="0 0 18 18" fill="none" xmlns="http://www.w3.org/2000/svg">
<path d="M16.5604 0H1.53803C0.717186 0 0 0.590625 0 1.40183V16.4575C0 17.2732 0.717186 18 1.53803 18H16.556C17.3812 18 18 17.2683 18 16.4575V1.40183C18.0048 0.590625 17.3812 0 16.5604 0ZM5.57959 15.0039H3.00093V6.98625H5.57959V15.0039ZM4.37946 5.76723H4.36097C3.53571 5.76723 3.00133 5.1529 3.00133 4.38388C3.00133 3.6008 3.54977 3.00094 4.39352 3.00094C5.23727 3.00094 5.75356 3.59638 5.77204 4.38388C5.77164 5.1529 5.23727 5.76723 4.37946 5.76723ZM15.0039 15.0039H12.4252V10.62C12.4252 9.56973 12.0499 8.85214 11.117 8.85214C10.4042 8.85214 9.98235 9.33429 9.79472 9.80397C9.7244 9.97272 9.70552 10.2025 9.70552 10.4372V15.0039H7.12686V6.98625H9.70552V8.10201C10.0808 7.56763 10.667 6.79862 12.0311 6.79862C13.7238 6.79862 15.0043 7.91438 15.0043 10.3199L15.0039 15.0039Z" fill="black"/>
</svg>
