<svg width="335" height="50" viewBox="0 0 335 50" fill="none" xmlns="http://www.w3.org/2000/svg">
<rect width="335" height="50" rx="14" fill="white"/>
<rect width="335" height="50" rx="14" fill="#00B000" fill-opacity="0.15"/>
<path fill-rule="evenodd" clip-rule="evenodd" d="M26.5136 15.4777C26.7162 15.3524 26.9693 15.341 27.1825 15.4476L28.25 15.9814L29.3175 15.4476C29.5113 15.3507 29.7393 15.3508 29.9329 15.4478L30.9995 15.9821L32.0837 15.4462C32.2775 15.3504 32.5052 15.3513 32.6982 15.4488L33.7505 15.9801L34.8069 15.4484C35.0009 15.3507 35.2297 15.3505 35.424 15.4479L36.4896 15.9819L37.5697 15.4465C37.7628 15.3508 37.9896 15.3512 38.1824 15.4475L39.2503 15.9814L40.3175 15.4476C40.5306 15.341 40.7837 15.3524 40.9864 15.4777C41.1891 15.6029 41.3125 15.8242 41.3125 16.0625V25.6875H39.9375V17.1751L39.558 17.3649C39.3644 17.4617 39.1366 17.4617 38.943 17.365L37.8737 16.8305L36.7933 17.366C36.6 17.4618 36.3729 17.4613 36.18 17.3646L35.1167 16.8318L34.0591 17.3641C33.8644 17.4621 33.6347 17.462 33.4401 17.3637L32.3851 16.831L31.3021 17.3663C31.1089 17.4618 30.8821 17.4612 30.6895 17.3647L29.6247 16.8313L28.5575 17.3649C28.3639 17.4617 28.1361 17.4617 27.9425 17.3649L27.5625 17.1749V28.4375H26.1875V16.0625C26.1875 15.8242 26.3109 15.6029 26.5136 15.4777Z" fill="#00B000"/>
<path fill-rule="evenodd" clip-rule="evenodd" d="M39.9375 30.5V25.6875H41.3125V30.5C41.3125 31.594 40.8779 32.6432 40.1043 33.4168C39.3308 34.1904 38.2815 34.625 37.1875 34.625H24.8125C23.9546 34.625 23.232 34.485 22.6385 34.1864C22.0339 33.8824 21.6037 33.4338 21.3089 32.8902C20.7483 31.8559 20.6876 30.4795 20.6875 29.1275C20.6864 28.9469 20.721 28.7679 20.7894 28.6007C20.8582 28.4324 20.9599 28.2795 21.0885 28.1509C21.217 28.0224 21.3699 27.9207 21.5382 27.8519C21.7054 27.7835 21.8844 27.7489 22.065 27.75H33.75C34.1297 27.75 34.4375 28.0578 34.4375 28.4375V30.5C34.4375 31.2293 34.7273 31.9288 35.243 32.4445C35.7587 32.9603 36.4582 33.25 37.1875 33.25C37.9169 33.25 38.6163 32.9603 39.1321 32.4445C39.6478 31.9288 39.9375 31.2293 39.9375 30.5ZM34.1129 33.25C33.4383 32.4958 33.0625 31.5173 33.0625 30.5V29.125H22.0625C22.0625 30.5222 22.147 31.5509 22.5177 32.2348C22.6889 32.5505 22.9212 32.7895 23.2563 32.9581C23.6024 33.1322 24.0965 33.25 24.8125 33.25H34.1129Z" fill="#00B000"/>
<path fill-rule="evenodd" clip-rule="evenodd" d="M28.9375 20.1875C28.9375 19.8078 29.2453 19.5 29.625 19.5H37.875C38.2547 19.5 38.5625 19.8078 38.5625 20.1875C38.5625 20.5672 38.2547 20.875 37.875 20.875H29.625C29.2453 20.875 28.9375 20.5672 28.9375 20.1875Z" fill="#00B000"/>
<path fill-rule="evenodd" clip-rule="evenodd" d="M31.6875 23.625C31.6875 23.2453 31.9953 22.9375 32.375 22.9375H37.875C38.2547 22.9375 38.5625 23.2453 38.5625 23.625C38.5625 24.0047 38.2547 24.3125 37.875 24.3125H32.375C31.9953 24.3125 31.6875 24.0047 31.6875 23.625Z" fill="#00B000"/>
<path d="M119.716 19.9238H121.903L118.465 30H116.476L113.071 19.9238H115.32L117.508 27.5732L119.716 19.9238ZM124.754 21.6602H122.778V19.8623H124.754V21.6602ZM122.778 22.5488H124.754V30H122.778V22.5488ZM129.587 23.957C129.136 23.957 128.785 24.0983 128.534 24.3809C128.288 24.6634 128.133 25.0462 128.069 25.5293H131.098C131.066 25.0143 130.909 24.6247 130.626 24.3604C130.348 24.0915 130.002 23.957 129.587 23.957ZM129.587 22.3506C130.207 22.3506 130.765 22.4668 131.262 22.6992C131.758 22.9316 132.169 23.2985 132.492 23.7998C132.784 24.2419 132.973 24.7546 133.06 25.3379C133.11 25.6797 133.13 26.1719 133.121 26.8145H128.021C128.049 27.5618 128.284 28.0859 128.726 28.3867C128.994 28.5736 129.318 28.667 129.696 28.667C130.097 28.667 130.423 28.5531 130.674 28.3252C130.811 28.2021 130.931 28.0312 131.036 27.8125H133.025C132.975 28.2546 132.745 28.7035 132.335 29.1592C131.697 29.8838 130.804 30.2461 129.655 30.2461C128.707 30.2461 127.871 29.9408 127.146 29.3301C126.422 28.7194 126.06 27.7259 126.06 26.3496C126.06 25.0599 126.385 24.071 127.037 23.3828C127.693 22.6947 128.543 22.3506 129.587 22.3506ZM137.954 22.5488H139.93L141.064 27.915L142.227 22.5488H144.257L142.097 30H140.094L138.925 24.5723L137.742 30H135.719L133.627 22.5488H135.719L136.881 27.8945L137.954 22.5488ZM151.496 21.6738V24.3809H153.882C154.356 24.3809 154.711 24.3262 154.948 24.2168C155.368 24.0254 155.577 23.6471 155.577 23.082C155.577 22.4714 155.374 22.0612 154.969 21.8516C154.741 21.7331 154.399 21.6738 153.943 21.6738H151.496ZM154.381 19.9238C155.087 19.9375 155.63 20.0241 156.008 20.1836C156.391 20.3431 156.714 20.5778 156.979 20.8877C157.197 21.1429 157.37 21.4255 157.498 21.7354C157.626 22.0452 157.689 22.3984 157.689 22.7949C157.689 23.2734 157.569 23.7451 157.327 24.21C157.086 24.6702 156.687 24.9961 156.131 25.1875C156.596 25.3743 156.924 25.641 157.115 25.9873C157.311 26.3291 157.409 26.8532 157.409 27.5596V28.2363C157.409 28.6966 157.427 29.0088 157.464 29.1729C157.519 29.4326 157.646 29.624 157.847 29.7471V30H155.529C155.465 29.7767 155.42 29.5967 155.393 29.46C155.338 29.1774 155.308 28.888 155.304 28.5918L155.29 27.6553C155.281 27.0127 155.162 26.5843 154.935 26.3701C154.711 26.1559 154.29 26.0488 153.67 26.0488H151.496V30H149.438V19.9238H154.381ZM162.29 23.957C161.839 23.957 161.488 24.0983 161.237 24.3809C160.991 24.6634 160.836 25.0462 160.772 25.5293H163.801C163.769 25.0143 163.612 24.6247 163.329 24.3604C163.051 24.0915 162.705 23.957 162.29 23.957ZM162.29 22.3506C162.91 22.3506 163.468 22.4668 163.965 22.6992C164.462 22.9316 164.872 23.2985 165.195 23.7998C165.487 24.2419 165.676 24.7546 165.763 25.3379C165.813 25.6797 165.833 26.1719 165.824 26.8145H160.725C160.752 27.5618 160.987 28.0859 161.429 28.3867C161.698 28.5736 162.021 28.667 162.399 28.667C162.8 28.667 163.126 28.5531 163.377 28.3252C163.514 28.2021 163.634 28.0312 163.739 27.8125H165.729C165.678 28.2546 165.448 28.7035 165.038 29.1592C164.4 29.8838 163.507 30.2461 162.358 30.2461C161.41 30.2461 160.574 29.9408 159.85 29.3301C159.125 28.7194 158.763 27.7259 158.763 26.3496C158.763 25.0599 159.089 24.071 159.74 23.3828C160.396 22.6947 161.246 22.3506 162.29 22.3506ZM170.302 28.5645C170.972 28.5645 171.448 28.2773 171.73 27.7031C171.913 27.3249 172.004 26.8464 172.004 26.2676C172.004 25.8118 171.926 25.404 171.771 25.0439C171.493 24.3968 171.006 24.0732 170.309 24.0732C169.816 24.0732 169.42 24.2624 169.119 24.6406C168.823 25.0189 168.675 25.5931 168.675 26.3633C168.675 26.8783 168.743 27.2998 168.88 27.6279C169.135 28.2523 169.609 28.5645 170.302 28.5645ZM169.81 22.3574C170.429 22.3574 170.931 22.5101 171.313 22.8154C171.537 22.9886 171.765 23.2734 171.997 23.6699V22.5625H173.877V32.9531H171.949V29.0771C171.803 29.3779 171.553 29.6468 171.197 29.8838C170.846 30.1162 170.366 30.2324 169.755 30.2324C168.894 30.2324 168.16 29.8883 167.554 29.2002C166.948 28.512 166.645 27.5938 166.645 26.4453C166.645 25.2057 166.948 24.2145 167.554 23.4717C168.164 22.7288 168.916 22.3574 169.81 22.3574ZM177.644 22.5488V27.04C177.644 27.4639 177.694 27.7829 177.794 27.9971C177.972 28.3753 178.32 28.5645 178.84 28.5645C179.505 28.5645 179.961 28.2956 180.207 27.7578C180.335 27.4661 180.398 27.0811 180.398 26.6025V22.5488H182.374V30H180.48V28.9473C180.462 28.9701 180.417 29.0384 180.344 29.1523C180.271 29.2663 180.184 29.3665 180.084 29.4531C179.779 29.7266 179.482 29.9134 179.195 30.0137C178.913 30.1139 178.58 30.1641 178.197 30.1641C177.094 30.1641 176.352 29.7676 175.969 28.9746C175.755 28.5371 175.647 27.8923 175.647 27.04V22.5488H177.644ZM187.2 23.957C186.749 23.957 186.398 24.0983 186.147 24.3809C185.901 24.6634 185.746 25.0462 185.683 25.5293H188.711C188.679 25.0143 188.522 24.6247 188.239 24.3604C187.961 24.0915 187.615 23.957 187.2 23.957ZM187.2 22.3506C187.82 22.3506 188.378 22.4668 188.875 22.6992C189.372 22.9316 189.782 23.2985 190.105 23.7998C190.397 24.2419 190.586 24.7546 190.673 25.3379C190.723 25.6797 190.743 26.1719 190.734 26.8145H185.635C185.662 27.5618 185.897 28.0859 186.339 28.3867C186.608 28.5736 186.931 28.667 187.31 28.667C187.711 28.667 188.036 28.5531 188.287 28.3252C188.424 28.2021 188.545 28.0312 188.649 27.8125H190.639C190.589 28.2546 190.358 28.7035 189.948 29.1592C189.31 29.8838 188.417 30.2461 187.269 30.2461C186.321 30.2461 185.484 29.9408 184.76 29.3301C184.035 28.7194 183.673 27.7259 183.673 26.3496C183.673 25.0599 183.999 24.071 184.65 23.3828C185.307 22.6947 186.157 22.3506 187.2 22.3506ZM193.571 27.6211C193.612 27.9674 193.701 28.2135 193.838 28.3594C194.079 28.6191 194.526 28.749 195.178 28.749C195.561 28.749 195.864 28.6921 196.087 28.5781C196.315 28.4642 196.429 28.2933 196.429 28.0654C196.429 27.8467 196.338 27.6803 196.155 27.5664C195.973 27.4525 195.296 27.2565 194.125 26.9785C193.282 26.7689 192.687 26.5068 192.341 26.1924C191.994 25.8825 191.821 25.4359 191.821 24.8525C191.821 24.1644 192.09 23.5742 192.628 23.082C193.17 22.5853 193.931 22.3369 194.911 22.3369C195.841 22.3369 196.597 22.5238 197.181 22.8975C197.769 23.2666 198.106 23.9069 198.192 24.8184H196.244C196.217 24.5677 196.146 24.3695 196.032 24.2236C195.818 23.9593 195.453 23.8271 194.938 23.8271C194.515 23.8271 194.212 23.8932 194.029 24.0254C193.852 24.1576 193.763 24.3125 193.763 24.4902C193.763 24.7135 193.858 24.8753 194.05 24.9756C194.241 25.0804 194.918 25.2604 196.08 25.5156C196.855 25.6979 197.436 25.9736 197.823 26.3428C198.206 26.7165 198.397 27.1836 198.397 27.7441C198.397 28.4824 198.122 29.0863 197.57 29.5557C197.023 30.0205 196.176 30.2529 195.027 30.2529C193.856 30.2529 192.99 30.0068 192.43 29.5146C191.874 29.0179 191.596 28.3867 191.596 27.6211H193.571ZM199.081 24.0049V22.6172H200.12V20.5391H202.048V22.6172H203.258V24.0049H202.048V27.9424C202.048 28.2477 202.087 28.4391 202.164 28.5166C202.242 28.5895 202.479 28.626 202.875 28.626C202.934 28.626 202.996 28.626 203.06 28.626C203.128 28.6214 203.194 28.6169 203.258 28.6123V30.0684L202.335 30.1025C201.414 30.1344 200.785 29.9749 200.448 29.624C200.229 29.4007 200.12 29.0566 200.12 28.5918V24.0049H199.081ZM206.026 27.6211C206.067 27.9674 206.156 28.2135 206.293 28.3594C206.535 28.6191 206.981 28.749 207.633 28.749C208.016 28.749 208.319 28.6921 208.542 28.5781C208.77 28.4642 208.884 28.2933 208.884 28.0654C208.884 27.8467 208.793 27.6803 208.61 27.5664C208.428 27.4525 207.751 27.2565 206.58 26.9785C205.737 26.7689 205.142 26.5068 204.796 26.1924C204.45 25.8825 204.276 25.4359 204.276 24.8525C204.276 24.1644 204.545 23.5742 205.083 23.082C205.625 22.5853 206.386 22.3369 207.366 22.3369C208.296 22.3369 209.052 22.5238 209.636 22.8975C210.224 23.2666 210.561 23.9069 210.647 24.8184H208.699C208.672 24.5677 208.601 24.3695 208.487 24.2236C208.273 23.9593 207.909 23.8271 207.394 23.8271C206.97 23.8271 206.667 23.8932 206.484 24.0254C206.307 24.1576 206.218 24.3125 206.218 24.4902C206.218 24.7135 206.313 24.8753 206.505 24.9756C206.696 25.0804 207.373 25.2604 208.535 25.5156C209.31 25.6979 209.891 25.9736 210.278 26.3428C210.661 26.7165 210.853 27.1836 210.853 27.7441C210.853 28.4824 210.577 29.0863 210.025 29.5557C209.479 30.0205 208.631 30.2529 207.482 30.2529C206.311 30.2529 205.445 30.0068 204.885 29.5146C204.329 29.0179 204.051 28.3867 204.051 27.6211H206.026Z" fill="#00B000"/>
<path d="M282.5 25H285M315 25L309 19M315 25L309 31M315 25C315 25 304.101 25 300 25M289 25H297" stroke="#00B000" stroke-width="1.5" stroke-linecap="round" stroke-linejoin="round"/>
</svg>
