<svg width="22" height="22" viewBox="0 0 22 22" fill="none" xmlns="http://www.w3.org/2000/svg">
<path fill-rule="evenodd" clip-rule="evenodd" d="M6.51356 1.47768C6.71625 1.35241 6.96934 1.34102 7.18246 1.44758L8.25 1.98135L9.31754 1.44758C9.51125 1.35073 9.73928 1.35081 9.93292 1.44781L10.9995 1.98209L12.0837 1.44618C12.2775 1.35037 12.5052 1.35133 12.6982 1.44879L13.7505 1.98009L14.8069 1.4484C15.0009 1.35073 15.2297 1.35053 15.424 1.44785L16.4896 1.98185L17.5697 1.44652C17.7628 1.3508 17.9896 1.35118 18.1824 1.44754L19.2503 1.98135L20.3175 1.44762C20.5306 1.34103 20.7837 1.35239 20.9864 1.47766C21.1891 1.60292 21.3125 1.82421 21.3125 2.0625V11.6875H19.9375V3.17505L19.558 3.36488C19.3644 3.46168 19.1366 3.46171 18.943 3.36496L17.8737 2.83046L16.7933 3.36598C16.6 3.46181 16.3729 3.46131 16.18 3.36465L15.1167 2.83183L14.0591 3.36411C13.8644 3.4621 13.6347 3.46196 13.4401 3.36371L12.3851 2.83101L11.3021 3.36632C11.1089 3.4618 10.8821 3.46119 10.6895 3.36469L9.62471 2.83129L8.55746 3.36492C8.36391 3.46169 8.13609 3.46169 7.94254 3.36492L7.5625 3.1749V14.4375H6.1875V2.0625C6.1875 1.82423 6.31087 1.60295 6.51356 1.47768Z" fill="#00B000"/>
<path fill-rule="evenodd" clip-rule="evenodd" d="M19.9375 16.5V11.6875H21.3125V16.5C21.3125 17.594 20.8779 18.6432 20.1043 19.4168C19.3308 20.1904 18.2815 20.625 17.1875 20.625H4.81253C3.95458 20.625 3.23202 20.485 2.63846 20.1864C2.03394 19.8824 1.60366 19.4338 1.30892 18.8902C0.74825 17.8559 0.687602 16.4795 0.687527 15.1275C0.686395 14.9469 0.721012 14.7679 0.789398 14.6007C0.858231 14.4324 0.959899 14.2795 1.08847 14.1509C1.21703 14.0224 1.36992 13.9207 1.53821 13.8519C1.70539 13.7835 1.88445 13.7489 2.06505 13.75H13.75C14.1297 13.75 14.4375 14.0578 14.4375 14.4375V16.5C14.4375 17.2293 14.7273 17.9288 15.243 18.4445C15.7587 18.9603 16.4582 19.25 17.1875 19.25C17.9169 19.25 18.6163 18.9603 19.1321 18.4445C19.6478 17.9288 19.9375 17.2293 19.9375 16.5ZM14.1129 19.25C13.4383 18.4958 13.0625 17.5173 13.0625 16.5V15.125H2.06253C2.06253 16.5222 2.14696 17.5509 2.51771 18.2348C2.68886 18.5505 2.92122 18.7895 3.25634 18.9581C3.60243 19.1322 4.09653 19.25 4.81253 19.25H14.1129Z" fill="#00B000"/>
<path fill-rule="evenodd" clip-rule="evenodd" d="M8.9375 6.1875C8.9375 5.8078 9.2453 5.5 9.625 5.5H17.875C18.2547 5.5 18.5625 5.8078 18.5625 6.1875C18.5625 6.5672 18.2547 6.875 17.875 6.875H9.625C9.2453 6.875 8.9375 6.5672 8.9375 6.1875Z" fill="#00B000"/>
<path fill-rule="evenodd" clip-rule="evenodd" d="M11.6875 9.625C11.6875 9.2453 11.9953 8.9375 12.375 8.9375H17.875C18.2547 8.9375 18.5625 9.2453 18.5625 9.625C18.5625 10.0047 18.2547 10.3125 17.875 10.3125H12.375C11.9953 10.3125 11.6875 10.0047 11.6875 9.625Z" fill="#00B000"/>
</svg>
