<svg width="20" height="20" viewBox="0 0 20 20" fill="none" xmlns="http://www.w3.org/2000/svg">
<path d="M18.8993 1.26734C18.7513 1.23217 18.5957 1.25115 18.4606 1.32086L17.5001 1.80055L16.5313 1.31617C16.4445 1.27278 16.3488 1.2502 16.2518 1.2502C16.1548 1.2502 16.0591 1.27278 15.9723 1.31617L14.9915 1.80094L14.0235 1.31617C13.9365 1.27247 13.8404 1.24971 13.743 1.24971C13.6456 1.24971 13.5496 1.27247 13.4626 1.31617L12.5001 1.79937L11.545 1.31734C11.4582 1.27334 11.3623 1.25021 11.265 1.2498C11.1677 1.2494 11.0716 1.27172 10.9844 1.315L10.0001 1.80133L9.0313 1.31578C8.94437 1.27241 8.84856 1.24984 8.75142 1.24984C8.65427 1.24984 8.55846 1.27241 8.47153 1.31578L7.50005 1.80055L6.52974 1.31578C6.40465 1.25308 6.26214 1.23416 6.12502 1.26207C5.98791 1.28997 5.86412 1.36308 5.77349 1.46969C5.6758 1.58612 5.62313 1.73373 5.62505 1.8857V11.2498L5.627 11.2517H13.1251C13.4566 11.2517 13.7745 11.3834 14.0089 11.6178C14.2434 11.8523 14.375 12.1702 14.375 12.5017V16.5623C14.375 17.7705 15.6668 18.7498 16.8751 18.7498H17.3438C17.8825 18.7498 18.3992 18.5358 18.7801 18.1548C19.161 17.7739 19.375 17.2572 19.375 16.7185V1.87476C19.3752 1.73488 19.3283 1.599 19.2421 1.48887C19.1558 1.37874 19.0351 1.30074 18.8993 1.26734ZM16.2501 9.37476H11.2696C10.9321 9.37476 10.6407 9.11539 10.6258 8.77789C10.622 8.69354 10.6354 8.6093 10.665 8.53025C10.6947 8.4512 10.74 8.37897 10.7984 8.31793C10.8567 8.2569 10.9268 8.20831 11.0044 8.17511C11.0821 8.14191 11.1656 8.12478 11.2501 8.12476H16.2305C16.568 8.12476 16.8594 8.38414 16.8743 8.72164C16.8781 8.80598 16.8647 8.89023 16.8351 8.96928C16.8054 9.04833 16.7601 9.12056 16.7017 9.18159C16.6434 9.24263 16.5733 9.29122 16.4957 9.32442C16.418 9.35762 16.3345 9.37474 16.2501 9.37476ZM16.2501 6.24976H8.76958C8.43208 6.24976 8.14068 5.99039 8.12583 5.65289C8.12203 5.56854 8.13536 5.4843 8.16502 5.40525C8.19467 5.3262 8.24004 5.25397 8.29837 5.19293C8.35671 5.1319 8.42681 5.08331 8.50444 5.05011C8.58207 5.01691 8.66562 4.99978 8.75005 4.99976H16.2305C16.568 4.99976 16.8594 5.25914 16.8743 5.59664C16.8781 5.68098 16.8647 5.76523 16.8351 5.84428C16.8054 5.92333 16.7601 5.99556 16.7017 6.05659C16.6434 6.11763 16.5733 6.16622 16.4957 6.19942C16.418 6.23262 16.3345 6.24974 16.2501 6.24976Z" fill="black"/>
<path d="M13.125 16.5625V13.125C13.125 12.9592 13.0592 12.8003 12.9419 12.6831C12.8247 12.5658 12.6658 12.5 12.5 12.5H1.875C1.54346 12.501 1.22582 12.6333 0.991567 12.8679C0.757314 13.1026 0.625515 13.4204 0.625 13.752C0.625 15.7266 0.850781 16.5477 1.18984 17.1727C1.76523 18.234 2.80703 18.75 4.375 18.75H13.9719C14.0027 18.75 14.0329 18.7409 14.0585 18.7239C14.0842 18.7068 14.1042 18.6825 14.1161 18.6541C14.128 18.6256 14.1313 18.5943 14.1254 18.564C14.1195 18.5338 14.1049 18.5059 14.0832 18.484C13.7137 18.1133 13.125 17.6172 13.125 16.5625Z" fill="black"/>
</svg>
